<?xml version="1.0" encoding="UTF-8"?><svg xmlns="http://www.w3.org/2000/svg" viewBox="0 0 1366 768"><defs><style>.uuid-ea62813c-0ef0-4259-a9b1-b82221b1e308,.uuid-f56a601e-9261-4870-9d26-f1537059be24{fill:#604429;}.uuid-fa27e9be-0e40-4fcf-9209-deddb9800eb8{fill:#fff;}.uuid-af189c3f-03f9-479f-9e64-a8ee0632044b{fill:#a75633;}.uuid-af189c3f-03f9-479f-9e64-a8ee0632044b,.uuid-db6a064a-ee08-46dd-8b13-45b96366b1e6,.uuid-f56a601e-9261-4870-9d26-f1537059be24,.uuid-cc533c91-6271-4e4f-83f7-093941333021,.uuid-60ba165a-025d-4036-bdd0-5d4f7cbbd1b2,.uuid-6dd669c0-ad2f-4ba3-82fb-5129efef066d,.uuid-68050312-5ac4-420d-b041-39f8d89c14af{fill-rule:evenodd;}.uuid-db6a064a-ee08-46dd-8b13-45b96366b1e6{fill:#c09052;}.uuid-cc533c91-6271-4e4f-83f7-093941333021{fill:#ba5b33;}.uuid-5ee47d0e-a534-4850-bad5-02963c8ac09d{fill:#ccc;}.uuid-e75d7618-83bf-495f-a7c1-69ae2cdc3f47{fill:#e9b856;}.uuid-60ba165a-025d-4036-bdd0-5d4f7cbbd1b2{fill:#c6a268;}.uuid-6dd669c0-ad2f-4ba3-82fb-5129efef066d{fill:#d2734a;}.uuid-68050312-5ac4-420d-b041-39f8d89c14af{fill:#e2cd9e;}</style></defs><g id="uuid-b8ecbfe8-9d92-42af-b542-0294740cc5db"><path class="uuid-5ee47d0e-a534-4850-bad5-02963c8ac09d" d="m1205.74,210.2c-7.87,15.29-21.63,22.08-34.97,19.02-6.35,15.56-24.4,26.79-45.67,26.79s-38.7-10.85-45.34-26c-6.68,10.25-20.54,17.31-36.57,17.31-22.54,0-40.82-13.95-40.82-31.16,0-.8.04-1.59.12-2.37-4.52-1.65-8.52-4.86-11.54-9.63-9.9-15.65-5.66-42.27,9.47-59.48,14.15-16.09,32.82-18.23,43.27-5.64.35-.71.71-1.41,1.09-2.1,12.11-22,35.09-26.84,51.32-10.78,2.56,2.53,4.8,5.43,6.7,8.6,12.4-11.73,29.02-12.51,41.35-.31,2.91,2.88,5.37,6.26,7.37,10.02,11.97-12.89,29.82-13.94,43.72-1.08,16.79,15.53,21.49,45.45,10.49,66.83Z"/><path class="uuid-fa27e9be-0e40-4fcf-9209-deddb9800eb8" d="m1248.17,154.37c-5.06,9.91-13.91,14.31-22.5,12.33-4.09,10.09-15.7,17.36-29.38,17.36s-24.9-7.03-29.17-16.86c-4.3,6.65-13.22,11.22-23.53,11.22-14.5,0-26.26-9.04-26.26-20.2,0-.52.02-1.03.08-1.54-2.91-1.07-5.48-3.15-7.43-6.24-6.37-10.14-3.64-27.4,6.09-38.56,9.1-10.43,21.11-11.82,27.84-3.66.22-.46.46-.91.7-1.36,7.79-14.26,22.57-17.4,33.02-6.99,1.65,1.64,3.09,3.52,4.31,5.58,7.98-7.6,18.67-8.11,26.61-.2,1.87,1.87,3.45,4.06,4.74,6.5,7.7-8.36,19.18-9.03,28.13-.7,10.8,10.07,13.83,29.46,6.75,43.32Z"/><path class="uuid-fa27e9be-0e40-4fcf-9209-deddb9800eb8" d="m473.96,137.37c-5.06,9.91-13.91,14.31-22.5,12.33-4.09,10.09-15.7,17.36-29.38,17.36s-24.9-7.03-29.17-16.86c-4.3,6.65-13.22,11.22-23.53,11.22-14.5,0-26.26-9.04-26.26-20.2,0-.52.02-1.03.08-1.54-2.91-1.07-5.48-3.15-7.43-6.24-6.37-10.14-3.64-27.4,6.09-38.56,9.1-10.43,21.11-11.82,27.84-3.66.22-.46.46-.91.7-1.36,7.79-14.26,22.57-17.4,33.02-6.99,1.65,1.64,3.09,3.52,4.31,5.58,7.98-7.6,18.67-8.11,26.61-.2,1.87,1.87,3.45,4.06,4.74,6.5,7.7-8.36,19.18-9.03,28.13-.7,10.8,10.07,13.83,29.46,6.75,43.32Z"/></g><g id="uuid-9f678072-3143-4297-a59c-3c2097913318"><polygon class="uuid-db6a064a-ee08-46dd-8b13-45b96366b1e6" points="955.95 682.38 956.06 706.81 966.22 703.99 966.86 673.16 955.95 682.38"/><polygon class="uuid-68050312-5ac4-420d-b041-39f8d89c14af" points="946.55 681.72 955.95 682.38 956.06 706.81 946.71 704.46 946.55 681.72"/><polygon class="uuid-af189c3f-03f9-479f-9e64-a8ee0632044b" points="969.4 671.85 955.48 684.63 944.48 682.28 957.27 669.97 969.4 671.85"/><polygon class="uuid-f56a601e-9261-4870-9d26-f1537059be24" points="960.63 688.39 960.44 692.34 961.81 692.2 961.95 687.31 960.63 688.39"/><polygon class="uuid-db6a064a-ee08-46dd-8b13-45b96366b1e6" points="975.9 645.92 976.08 706.28 986.43 705.16 986.8 658.15 975.9 645.92"/><polygon class="uuid-68050312-5ac4-420d-b041-39f8d89c14af" points="967.25 646.58 975.9 645.92 976.08 706.28 965.18 703.74 967.25 646.58"/><polygon class="uuid-af189c3f-03f9-479f-9e64-a8ee0632044b" points="964.66 643.9 978.11 641.93 990 658.24 987.13 659.41 986.8 658.15 975.9 645.92 967.25 646.58 964.66 643.9"/><polygon class="uuid-f56a601e-9261-4870-9d26-f1537059be24" points="980.97 660.35 980.88 665.99 982.57 665.81 982.48 660.78 980.97 660.35"/><polygon class="uuid-f56a601e-9261-4870-9d26-f1537059be24" points="970.4 652.6 970.58 657.77 972.14 657.81 971.99 652.39 970.4 652.6"/><polygon class="uuid-f56a601e-9261-4870-9d26-f1537059be24" points="969.53 675.84 969.62 680.4 970.94 680.64 971.12 676.03 969.53 675.84"/><polygon class="uuid-68050312-5ac4-420d-b041-39f8d89c14af" points="343.25 678.79 343.58 660.63 372.83 660.51 397.11 660.87 401.2 660.96 401.26 674.37 401.46 682.87 343.31 683.69 343.25 678.79"/><polygon class="uuid-60ba165a-025d-4036-bdd0-5d4f7cbbd1b2" points="355.87 678.79 356.14 660.63 379.04 660.51 398.06 660.87 401.25 660.96 401.31 674.37 401.46 682.87 355.92 683.69 355.87 678.79"/><polygon class="uuid-af189c3f-03f9-479f-9e64-a8ee0632044b" points="342.8 660.81 378.34 660.91 401.81 661.39 392.73 657.02 357.13 656.56 342.8 660.81"/><polygon class="uuid-af189c3f-03f9-479f-9e64-a8ee0632044b" points="330.59 677.43 343.36 672.67 364.87 672.67 401.25 672.49 410.31 676.34 402.89 676.41 381.06 676.34 354.38 676.87 330.59 677.43"/><polygon class="uuid-60ba165a-025d-4036-bdd0-5d4f7cbbd1b2" points="332.02 696.27 331.47 677.38 364.67 676.3 409.15 676.35 409.35 689.94 409.15 695.45 384.57 695.59 361.04 695.73 332.02 696.27"/><polygon class="uuid-db6a064a-ee08-46dd-8b13-45b96366b1e6" points="367.52 639 366.98 698.17 376.71 697.7 375.62 674.57 375.75 651.17 375.48 642.94 367.52 639"/><polygon class="uuid-68050312-5ac4-420d-b041-39f8d89c14af" points="361.61 641.86 363.85 640.56 367.52 639 367.18 676.61 366.98 698.17 361 697.42 361.68 671.71 361.61 641.86"/><path class="uuid-f56a601e-9261-4870-9d26-f1537059be24" d="m348.3,666.9h0c.3,0,.54.24.54.54v5.22h-1.09v-5.22c0-.3.24-.54.54-.54Z"/><rect class="uuid-ea62813c-0ef0-4259-a9b1-b82221b1e308" x="377.8" y="664.03" width=".68" height="3.37"/><rect class="uuid-ea62813c-0ef0-4259-a9b1-b82221b1e308" x="382.22" y="663.62" width=".78" height="3.13"/><rect class="uuid-ea62813c-0ef0-4259-a9b1-b82221b1e308" x="386.44" y="663.62" width=".78" height="3.13"/><rect class="uuid-ea62813c-0ef0-4259-a9b1-b82221b1e308" x="391.88" y="663.62" width=".78" height="3.13"/><rect class="uuid-ea62813c-0ef0-4259-a9b1-b82221b1e308" x="396.15" y="663.62" width=".78" height="3.13"/><path class="uuid-f56a601e-9261-4870-9d26-f1537059be24" d="m364.64,645.52c.17-.46.8-.54,1.12,0v4.43l-1.12.13v-4.56h0Zm-1.18.46c.15-.4.7-.47.98,0v4.12l-.98.12v-4.24Z"/><rect class="uuid-ea62813c-0ef0-4259-a9b1-b82221b1e308" x="388.49" y="678.31" width=".78" height="2.04"/><rect class="uuid-ea62813c-0ef0-4259-a9b1-b82221b1e308" x="396.57" y="678.31" width=".78" height="2.04"/><rect class="uuid-ea62813c-0ef0-4259-a9b1-b82221b1e308" x="403.18" y="678.31" width=".78" height="2.04"/><path class="uuid-f56a601e-9261-4870-9d26-f1537059be24" d="m388.88,687.06h0c.22,0,.39.18.39.39v3.21h-.78v-3.21c0-.22.18-.39.39-.39Z"/><path class="uuid-f56a601e-9261-4870-9d26-f1537059be24" d="m396.71,687.06h0c.22,0,.39.18.39.39v3.21h-.78v-3.21c0-.22.18-.39.39-.39Z"/><path class="uuid-f56a601e-9261-4870-9d26-f1537059be24" d="m404.19,687.06h0c.22,0,.39.18.39.39v3.21h-.78v-3.21c0-.22.18-.39.39-.39Z"/><path class="uuid-f56a601e-9261-4870-9d26-f1537059be24" d="m335.08,678.39h0c.15,0,.28.12.28.28v2.26h-.55v-2.26c0-.15.12-.28.28-.28Z"/><path class="uuid-f56a601e-9261-4870-9d26-f1537059be24" d="m341.15,678.05h0c.15,0,.28.12.28.28v2.26h-.55v-2.26c0-.15.12-.28.28-.28Z"/><path class="uuid-f56a601e-9261-4870-9d26-f1537059be24" d="m348.59,677.88h0c.15,0,.28.12.28.28v2.26h-.55v-2.26c0-.15.12-.28.28-.28Z"/><polygon class="uuid-af189c3f-03f9-479f-9e64-a8ee0632044b" points="329.13 687.56 338.9 687.39 335.59 685.77 329.13 687.56"/><polygon class="uuid-68050312-5ac4-420d-b041-39f8d89c14af" points="329.85 697.2 338.52 696.96 338.46 687.39 330.06 687.56 329.85 697.2"/><polygon class="uuid-68050312-5ac4-420d-b041-39f8d89c14af" points="350.85 697.54 356.57 697.47 356.52 687.9 350.99 687.9 350.85 697.54"/><polygon class="uuid-af189c3f-03f9-479f-9e64-a8ee0632044b" points="357.29 687.95 350.31 687.89 353.48 685.79 357.29 687.95"/><path class="uuid-f56a601e-9261-4870-9d26-f1537059be24" d="m353.67,689.08h0c.13,0,.23.1.23.23v1.87h-.46v-1.87c0-.13.1-.23.23-.23Z"/><path class="uuid-f56a601e-9261-4870-9d26-f1537059be24" d="m333.36,688.49h0c.13,0,.23.1.23.23v1.87h-.46v-1.87c0-.13.1-.23.23-.23Z"/><polygon class="uuid-6dd669c0-ad2f-4ba3-82fb-5129efef066d" points="357.13 656.56 361.16 660.86 342.8 660.81 357.13 656.56"/><polygon class="uuid-6dd669c0-ad2f-4ba3-82fb-5129efef066d" points="343.36 672.67 345.53 672.67 341.66 677.08 330.59 677.43 343.36 672.67"/><polygon class="uuid-cc533c91-6271-4e4f-83f7-093941333021" points="357.13 656.56 361.16 660.86 355.36 660.85 357.13 656.56"/><polygon class="uuid-cc533c91-6271-4e4f-83f7-093941333021" points="345.53 672.67 341.69 677.05 352.02 676.71 347.46 672.67 345.53 672.67"/><path class="uuid-f56a601e-9261-4870-9d26-f1537059be24" d="m363.5,665.97h0c.19,0,.35.16.35.35v3.34h-.7v-3.34c0-.19.16-.35.35-.35Z"/><path class="uuid-f56a601e-9261-4870-9d26-f1537059be24" d="m363.5,678.95h0c.19,0,.35.16.35.35v3.34h-.7v-3.34c0-.19.16-.35.35-.35Z"/><polygon class="uuid-68050312-5ac4-420d-b041-39f8d89c14af" points="1168.98 649 1167.75 703.02 1162.26 702.25 1162.88 650.31 1168.98 649"/><polygon class="uuid-db6a064a-ee08-46dd-8b13-45b96366b1e6" points="1172.77 649.5 1168.98 649 1167.75 703.02 1172.46 702.87 1172.77 649.5"/><polygon class="uuid-68050312-5ac4-420d-b041-39f8d89c14af" points="1117.34 675.94 1124.91 668.9 1134.11 675.24 1134.42 702.6 1117.96 702.22 1117.34 675.94"/><polygon class="uuid-db6a064a-ee08-46dd-8b13-45b96366b1e6" points="1170.05 672.34 1169.51 702.49 1134.42 702.6 1133.95 673.62 1170.05 672.34"/><polygon class="uuid-db6a064a-ee08-46dd-8b13-45b96366b1e6" points="1152 687.47 1152.12 703.53 1168.89 705.77 1201.27 705.93 1201.27 688.38 1185.12 675.4 1168.69 688.45 1152 687.47"/><rect class="uuid-ea62813c-0ef0-4259-a9b1-b82221b1e308" x="1140.23" y="675.86" width="1.57" height="2.78"/><rect class="uuid-ea62813c-0ef0-4259-a9b1-b82221b1e308" x="1149.74" y="675.01" width="1.51" height="3.07"/><rect class="uuid-ea62813c-0ef0-4259-a9b1-b82221b1e308" x="1160.35" y="674.49" width="1.39" height="2.57"/><rect class="uuid-ea62813c-0ef0-4259-a9b1-b82221b1e308" x="1181.27" y="687.82" width="1.55" height="4.1"/><polygon class="uuid-68050312-5ac4-420d-b041-39f8d89c14af" points="1168.97 688.23 1168.89 705.77 1152.12 703.53 1152 687.47 1168.97 688.23"/><polygon class="uuid-af189c3f-03f9-479f-9e64-a8ee0632044b" points="1149.8 688.23 1167.42 689.46 1185.12 675.4 1201.19 688.38 1204.52 688.38 1186.59 674.24 1170.02 673.94 1149.8 688.23"/><polygon class="uuid-db6a064a-ee08-46dd-8b13-45b96366b1e6" points="1126.77 704.69 1090.67 705.08 1091.21 683.2 1126.46 683.13 1126.77 704.69"/><polygon class="uuid-68050312-5ac4-420d-b041-39f8d89c14af" points="1082.81 685.39 1088.63 678.53 1091.21 683.2 1090.67 705.08 1083.33 704.69 1082.81 685.39"/><polygon class="uuid-af189c3f-03f9-479f-9e64-a8ee0632044b" points="1079.85 687.45 1088.2 677.21 1121.43 677.41 1126.46 683.51 1091.21 683.2 1088.63 678.53 1080.2 688.46 1079.85 687.45"/><path class="uuid-f56a601e-9261-4870-9d26-f1537059be24" d="m1117.79,691.67h0c3.62,0,6.58,2.96,6.58,6.58v6.46l-13.17.14v-6.61c0-3.62,2.96-6.58,6.58-6.58h0Zm-10,13.23l-13.17.14v-6.78c0-3.62,2.96-6.58,6.58-6.58h0c3.62,0,6.58,2.96,6.58,6.58v6.64Z"/><path class="uuid-af189c3f-03f9-479f-9e64-a8ee0632044b" d="m1125.38,667.36c.7-.08,39.57-1.04,39.57-1.04l7.88,6.57-38.72,2.36-9.2-6.34-7.57,7.03-1.78.15,9.82-8.73Z"/><polygon class="uuid-68050312-5ac4-420d-b041-39f8d89c14af" points="1055.68 679.74 1055.7 749.75 1038.6 748.93 1039.4 681.24 1055.68 679.74"/><path class="uuid-db6a064a-ee08-46dd-8b13-45b96366b1e6" d="m1138.17,682.08c-.61,1.24,1.35,67.36,1.35,67.36l-83.87.31-.54-67.79,83.06.12Z"/><polygon class="uuid-af189c3f-03f9-479f-9e64-a8ee0632044b" points="1036.25 683.3 1055.7 683.61 1140.63 683.82 1117.82 667.72 1052.87 667.72 1036.25 683.3"/><path class="uuid-f56a601e-9261-4870-9d26-f1537059be24" d="m1070.77,695.73c-.16.31-.1,9.18-.1,9.18l2.94-.05-.57-8.87-2.27-.26Z"/><polygon class="uuid-f56a601e-9261-4870-9d26-f1537059be24" points="1091.51 695.94 1091.82 703.94 1094.09 703.99 1093.99 696.35 1091.51 695.94"/><polygon class="uuid-db6a064a-ee08-46dd-8b13-45b96366b1e6" points="1113.75 721.99 1112.64 751.81 1144.23 750.52 1143.99 721.34 1113.75 721.99"/><polygon class="uuid-68050312-5ac4-420d-b041-39f8d89c14af" points="1072.17 722.82 1071.69 749.91 1112.64 751.81 1114.16 722.74 1072.17 722.82"/><polygon class="uuid-af189c3f-03f9-479f-9e64-a8ee0632044b" points="1146.04 722.3 1125.41 711.98 1080.83 712.81 1071.54 723.33 1146.04 722.3"/><path class="uuid-f56a601e-9261-4870-9d26-f1537059be24" d="m1079.11,736.43c2.76-.29,5,2.49,5,6.21v7.83s-10.04-.47-10.04-.47c-.03-.31.04-7.95.39-9.36.35-1.41,1.88-3.92,4.64-4.21Z"/><path class="uuid-f56a601e-9261-4870-9d26-f1537059be24" d="m1091.54,737.02c2.76-.29,5,2.49,5,6.21v7.83s-10.04-.47-10.04-.47c-.03-.31.04-7.95.39-9.36s1.88-3.92,4.64-4.21Z"/><path class="uuid-f56a601e-9261-4870-9d26-f1537059be24" d="m1103.92,737.56c2.76-.29,5,2.49,5,6.21v7.83s-10.04-.47-10.04-.47c-.03-.31.04-7.95.39-9.36.35-1.41,1.88-3.92,4.64-4.21Z"/><polygon class="uuid-db6a064a-ee08-46dd-8b13-45b96366b1e6" points="975.18 709.99 975.36 749.81 991.91 745.21 992.95 694.97 975.18 709.99"/><polygon class="uuid-68050312-5ac4-420d-b041-39f8d89c14af" points="959.85 708.92 975.18 709.99 975.36 749.81 960.11 745.98 959.85 708.92"/><polygon class="uuid-af189c3f-03f9-479f-9e64-a8ee0632044b" points="997.09 692.83 974.41 713.67 956.48 709.84 977.32 689.76 997.09 692.83"/><polygon class="uuid-f56a601e-9261-4870-9d26-f1537059be24" points="982.8 719.8 982.49 726.23 984.71 726 984.94 718.03 982.8 719.8"/><polygon class="uuid-db6a064a-ee08-46dd-8b13-45b96366b1e6" points="1007.68 650.58 1007.99 748.95 1024.84 747.11 1025.46 670.5 1007.68 650.58"/><polygon class="uuid-68050312-5ac4-420d-b041-39f8d89c14af" points="993.58 651.65 1007.68 650.58 1007.99 748.95 990.21 744.82 993.58 651.65"/><polygon class="uuid-af189c3f-03f9-479f-9e64-a8ee0632044b" points="989.37 647.28 1011.28 644.06 1030.67 670.65 1025.99 672.57 1025.46 670.5 1007.68 650.58 993.58 651.65 989.37 647.28"/><polygon class="uuid-f56a601e-9261-4870-9d26-f1537059be24" points="1015.95 674.1 1015.8 683.29 1018.56 682.98 1018.41 674.79 1015.95 674.1"/><polygon class="uuid-f56a601e-9261-4870-9d26-f1537059be24" points="998.72 661.46 999.02 669.88 1001.55 669.96 1001.32 661.11 998.72 661.46"/><polygon class="uuid-f56a601e-9261-4870-9d26-f1537059be24" points="997.3 699.34 997.45 706.77 999.6 707.16 999.9 699.65 997.3 699.34"/><polygon class="uuid-68050312-5ac4-420d-b041-39f8d89c14af" points="75.67 741.3 79.57 636.39 105.12 650.43 103.36 739.35 75.67 741.3"/><polygon class="uuid-60ba165a-025d-4036-bdd0-5d4f7cbbd1b2" points="88.35 693.72 212.18 695.86 212.18 701.13 206.33 701.91 204.7 742.13 94.59 738.38 95.17 699.37 89.71 698.2 88.35 693.72"/><polygon class="uuid-68050312-5ac4-420d-b041-39f8d89c14af" points="193.36 660.93 193.75 680.07 176.98 679.89 177.86 660.4 193.36 660.93"/><polygon class="uuid-68050312-5ac4-420d-b041-39f8d89c14af" points="11.17 726.87 10.64 744.43 68.45 745.16 69.43 723.28 11.17 726.87"/><polygon class="uuid-db6a064a-ee08-46dd-8b13-45b96366b1e6" points="105.25 703.91 104.58 742.67 68.45 745.16 69.43 723.28 105.25 703.91"/><rect class="uuid-ea62813c-0ef0-4259-a9b1-b82221b1e308" x="117.45" y="710.88" width="2.83" height="8.58"/><rect class="uuid-ea62813c-0ef0-4259-a9b1-b82221b1e308" x="131.2" y="709.61" width="3.22" height="9.17"/><rect class="uuid-ea62813c-0ef0-4259-a9b1-b82221b1e308" x="183.36" y="700.3" width="3.66" height="6.92"/><path class="uuid-f56a601e-9261-4870-9d26-f1537059be24" d="m156.99,724.39c3.28-1.51,7.3-1.61,11.02,0v15.99h-11.02v-15.99Z"/><path class="uuid-f56a601e-9261-4870-9d26-f1537059be24" d="m88.54,723.37c7.16-.76,12.97,6.44,12.97,16.08,0,1.17-.09,2.32-.25,3.45l-25.56,1.77c-.09-.8-.13-1.62-.13-2.47,0-9.64,5.81-18.07,12.97-18.83Z"/><rect class="uuid-ea62813c-0ef0-4259-a9b1-b82221b1e308" x="82.74" y="654.06" width="7.95" height="2.54" transform="translate(-571.49 716.54) rotate(-87.78)"/><rect class="uuid-ea62813c-0ef0-4259-a9b1-b82221b1e308" x="90.1" y="655.47" width="7.95" height="2.54" transform="translate(-565.82 725.25) rotate(-87.78)"/><polygon class="uuid-af189c3f-03f9-479f-9e64-a8ee0632044b" points="102 679.29 82.89 693.91 217.64 696.06 195.02 680.07 102 679.29"/><polygon class="uuid-af189c3f-03f9-479f-9e64-a8ee0632044b" points="37.99 709.61 106.24 703.37 68.02 724.04 6.78 727.94 37.99 709.61"/><polygon class="uuid-af189c3f-03f9-479f-9e64-a8ee0632044b" points="75.67 634.24 110.09 653.55 110.72 651.99 76.64 632.88 75.67 634.24"/><polygon class="uuid-af189c3f-03f9-479f-9e64-a8ee0632044b" points="175.08 660.66 195.95 661.03 185.12 655.86 175.08 660.66"/><polygon class="uuid-68050312-5ac4-420d-b041-39f8d89c14af" points="1288.07 654.48 1286.24 734.62 1278.1 733.47 1279.02 656.43 1288.07 654.48"/><polygon class="uuid-db6a064a-ee08-46dd-8b13-45b96366b1e6" points="1293.69 655.22 1288.07 654.48 1286.24 734.62 1293.23 734.39 1293.69 655.22"/><polygon class="uuid-68050312-5ac4-420d-b041-39f8d89c14af" points="1211.46 694.44 1222.7 684.01 1236.34 693.41 1236.8 734 1212.38 733.42 1211.46 694.44"/><polygon class="uuid-db6a064a-ee08-46dd-8b13-45b96366b1e6" points="1289.65 689.11 1288.85 733.82 1236.8 734 1236.11 691 1289.65 689.11"/><polygon class="uuid-db6a064a-ee08-46dd-8b13-45b96366b1e6" points="1262.88 711.55 1263.05 735.37 1287.93 738.7 1335.97 738.93 1335.97 712.9 1312.01 693.64 1287.64 713 1262.88 711.55"/><rect class="uuid-ea62813c-0ef0-4259-a9b1-b82221b1e308" x="1245.42" y="694.33" width="2.32" height="4.13"/><rect class="uuid-ea62813c-0ef0-4259-a9b1-b82221b1e308" x="1259.52" y="693.06" width="2.24" height="4.56"/><rect class="uuid-ea62813c-0ef0-4259-a9b1-b82221b1e308" x="1275.26" y="692.29" width="2.06" height="3.81"/><rect class="uuid-ea62813c-0ef0-4259-a9b1-b82221b1e308" x="1306.3" y="712.07" width="2.29" height="6.08"/><polygon class="uuid-68050312-5ac4-420d-b041-39f8d89c14af" points="1288.05 712.67 1287.93 738.7 1263.05 735.37 1262.88 711.55 1288.05 712.67"/><polygon class="uuid-af189c3f-03f9-479f-9e64-a8ee0632044b" points="1259.61 712.67 1285.75 714.5 1312.01 693.64 1335.85 712.9 1340.78 712.9 1314.19 691.92 1289.61 691.48 1259.61 712.67"/><polygon class="uuid-db6a064a-ee08-46dd-8b13-45b96366b1e6" points="1225.45 737.09 1171.91 737.66 1172.71 705.22 1224.99 705.1 1225.45 737.09"/><polygon class="uuid-68050312-5ac4-420d-b041-39f8d89c14af" points="1160.23 708.46 1168.87 698.28 1172.71 705.22 1171.91 737.66 1161.01 737.09 1160.23 708.46"/><polygon class="uuid-af189c3f-03f9-479f-9e64-a8ee0632044b" points="1155.85 711.52 1168.24 696.33 1217.54 696.62 1225 705.68 1172.71 705.22 1168.87 698.28 1156.37 713.01 1155.85 711.52"/><path class="uuid-f56a601e-9261-4870-9d26-f1537059be24" d="m1212.12,717.77h0c5.37,0,9.77,4.4,9.77,9.77v9.59l-19.54.21v-9.8c0-5.37,4.4-9.77,9.77-9.77h0Zm-14.84,19.62l-19.54.21v-10.06c0-5.37,4.4-9.77,9.77-9.77h0c5.37,0,9.77,4.4,9.77,9.77v9.85Z"/><path class="uuid-af189c3f-03f9-479f-9e64-a8ee0632044b" d="m1223.38,681.71c1.03-.11,58.7-1.55,58.7-1.55l11.69,9.75-57.44,3.5-13.64-9.4-11.24,10.43-2.64.23,14.56-12.96Z"/><path class="uuid-e75d7618-83bf-495f-a7c1-69ae2cdc3f47" d="m1092.71,750.74c1.29,1.91,4.71,2.58,4.71,2.58,0,0,.65-3.42-.64-5.34-1.29-1.91-4.71-2.58-4.71-2.58,0,0-.65,3.42.64,5.34Z"/><path class="uuid-e75d7618-83bf-495f-a7c1-69ae2cdc3f47" d="m1098.01,746.38c-.12-1.06-.24-3.32.72-4.75,1.29-1.91,4.71-2.58,4.71-2.58,0,0,.54,2.85-.34,4.8-.48.1-3.35.74-5.09,2.53Z"/><path class="uuid-e75d7618-83bf-495f-a7c1-69ae2cdc3f47" d="m1102.8,750.74c-1.29,1.91-4.71,2.58-4.71,2.58,0,0-.65-3.42.64-5.34,1.29-1.91,4.71-2.58,4.71-2.58,0,0,.65,3.42-.64,5.34Z"/><path class="uuid-e75d7618-83bf-495f-a7c1-69ae2cdc3f47" d="m1097.76,733.96c-.64-.75-1.49-1.32-2.32-1.75.5-1.98,2.32-3.82,2.32-3.82,0,0,1.82,1.83,2.32,3.82-.83.42-1.68.99-2.32,1.75Z"/><path class="uuid-e75d7618-83bf-495f-a7c1-69ae2cdc3f47" d="m1092.41,737.5c-.88-1.95-.34-4.8-.34-4.8,0,0,3.42.67,4.71,2.58.96,1.42.85,3.68.72,4.74-1.73-1.78-4.59-2.43-5.09-2.53Z"/><path class="uuid-e75d7618-83bf-495f-a7c1-69ae2cdc3f47" d="m1092.41,743.85c-.88-1.95-.34-4.8-.34-4.8,0,0,3.42.67,4.71,2.58.96,1.42.85,3.68.72,4.75-1.74-1.79-4.61-2.43-5.09-2.53Z"/><path class="uuid-e75d7618-83bf-495f-a7c1-69ae2cdc3f47" d="m1097.76,754.92c.29,0,.6-.05.79-.08v5.16h-1.59v-5.16c.2.04.51.08.79.08Z"/><path class="uuid-e75d7618-83bf-495f-a7c1-69ae2cdc3f47" d="m1098.01,740.03c-.12-1.06-.24-3.32.72-4.74,1.29-1.91,4.71-2.58,4.71-2.58,0,0,.54,2.85-.34,4.8-.49.1-3.36.75-5.09,2.53Z"/><path class="uuid-e75d7618-83bf-495f-a7c1-69ae2cdc3f47" d="m1078.99,739.61h-.06c-.71-1.76-.25-4.19-.25-4.19,0,0,3.07.6,4.24,2.32.81,1.21.77,3.08.67,4.09-1.65-1.61-4.27-2.16-4.6-2.23Z"/><path class="uuid-e75d7618-83bf-495f-a7c1-69ae2cdc3f47" d="m1078.99,745.36h-.06c-.71-1.76-.25-4.19-.25-4.19,0,0,3.07.6,4.24,2.32.81,1.21.77,3.08.67,4.09-1.65-1.61-4.27-2.16-4.6-2.23Z"/><path class="uuid-e75d7618-83bf-495f-a7c1-69ae2cdc3f47" d="m1079.26,751.72c1.16,1.72,4.24,2.32,4.24,2.32,0,0,.59-3.08-.57-4.8-1.16-1.72-4.24-2.32-4.24-2.32,0,0-.59,3.08.57,4.8Z"/><path class="uuid-e75d7618-83bf-495f-a7c1-69ae2cdc3f47" d="m1083.8,755.6c.32,0,.6-.03.79-.06v4.46h-1.59v-4.46c.19.03.47.06.79.06Z"/><path class="uuid-e75d7618-83bf-495f-a7c1-69ae2cdc3f47" d="m1083.8,736.32c-.57-.62-1.28-1.1-1.99-1.46.66-1.6,1.99-2.94,1.99-2.94,0,0,1.33,1.34,1.99,2.94-.71.36-1.42.84-1.99,1.46Z"/><path class="uuid-e75d7618-83bf-495f-a7c1-69ae2cdc3f47" d="m1088.62,739.61c-.33.07-2.95.62-4.6,2.23-.1-1.01-.14-2.89.67-4.09,1.16-1.72,4.24-2.32,4.24-2.32,0,0,.46,2.43-.25,4.18h-.06Z"/><path class="uuid-e75d7618-83bf-495f-a7c1-69ae2cdc3f47" d="m1088.62,745.36c-.33.07-2.95.62-4.6,2.23-.1-1.01-.14-2.89.67-4.09,1.16-1.72,4.24-2.32,4.24-2.32,0,0,.46,2.43-.25,4.18h-.06Z"/><path class="uuid-e75d7618-83bf-495f-a7c1-69ae2cdc3f47" d="m1088.35,751.72c-1.16,1.72-4.24,2.32-4.24,2.32,0,0-.59-3.08.57-4.8,1.16-1.72,4.24-2.32,4.24-2.32,0,0,.59,3.08-.57,4.8Z"/><path class="uuid-e75d7618-83bf-495f-a7c1-69ae2cdc3f47" d="m1106.9,739.61h-.06c-.71-1.76-.25-4.19-.25-4.19,0,0,3.07.6,4.24,2.32.81,1.21.77,3.08.67,4.09-1.65-1.61-4.27-2.16-4.6-2.23Z"/><path class="uuid-e75d7618-83bf-495f-a7c1-69ae2cdc3f47" d="m1106.9,745.36h-.06c-.71-1.76-.25-4.19-.25-4.19,0,0,3.07.6,4.24,2.32.81,1.21.77,3.08.67,4.09-1.65-1.61-4.27-2.16-4.6-2.23Z"/><path class="uuid-e75d7618-83bf-495f-a7c1-69ae2cdc3f47" d="m1107.17,751.72c1.16,1.72,4.24,2.32,4.24,2.32,0,0,.59-3.08-.57-4.8-1.16-1.72-4.24-2.32-4.24-2.32,0,0-.59,3.08.57,4.8Z"/><path class="uuid-e75d7618-83bf-495f-a7c1-69ae2cdc3f47" d="m1111.71,755.6c.32,0,.6-.03.79-.06v4.46h-1.59v-4.46c.19.03.47.06.79.06Z"/><path class="uuid-e75d7618-83bf-495f-a7c1-69ae2cdc3f47" d="m1111.71,736.32c-.57-.62-1.28-1.1-1.99-1.46.66-1.6,1.99-2.94,1.99-2.94,0,0,1.33,1.34,1.99,2.94-.71.36-1.42.84-1.99,1.46Z"/><path class="uuid-e75d7618-83bf-495f-a7c1-69ae2cdc3f47" d="m1116.52,739.61c-.33.07-2.95.62-4.6,2.23-.1-1.01-.14-2.89.67-4.09,1.16-1.72,4.24-2.32,4.24-2.32,0,0,.46,2.43-.25,4.18h-.06Z"/><path class="uuid-e75d7618-83bf-495f-a7c1-69ae2cdc3f47" d="m1116.52,745.36c-.33.07-2.95.62-4.6,2.23-.1-1.01-.14-2.89.67-4.09,1.16-1.72,4.24-2.32,4.24-2.32,0,0,.46,2.43-.25,4.18h-.06Z"/><path class="uuid-e75d7618-83bf-495f-a7c1-69ae2cdc3f47" d="m1116.25,751.72c-1.16,1.72-4.24,2.32-4.24,2.32,0,0-.59-3.08.57-4.8,1.16-1.72,4.24-2.32,4.24-2.32,0,0,.59,3.08-.57,4.8Z"/><path class="uuid-e75d7618-83bf-495f-a7c1-69ae2cdc3f47" d="m1049.99,747.11c1.29,2.66,4.71,3.6,4.71,3.6,0,0,.65-4.77-.64-7.43-1.29-2.66-4.71-3.6-4.71-3.6,0,0-.65,4.77.64,7.43Z"/><path class="uuid-e75d7618-83bf-495f-a7c1-69ae2cdc3f47" d="m1055.29,741.04c-.12-1.48-.24-4.63.72-6.61,1.29-2.66,4.71-3.6,4.71-3.6,0,0,.54,3.96-.34,6.68-.48.13-3.35,1.03-5.09,3.52Z"/><path class="uuid-e75d7618-83bf-495f-a7c1-69ae2cdc3f47" d="m1060.08,747.11c-1.29,2.66-4.71,3.6-4.71,3.6,0,0-.65-4.77.64-7.43,1.29-2.66,4.71-3.6,4.71-3.6,0,0,.65,4.77-.64,7.43Z"/><path class="uuid-e75d7618-83bf-495f-a7c1-69ae2cdc3f47" d="m1055.04,723.75c-.64-1.05-1.49-1.84-2.32-2.43.5-2.76,2.32-5.31,2.32-5.31,0,0,1.82,2.55,2.32,5.31-.83.59-1.68,1.38-2.32,2.43Z"/><path class="uuid-e75d7618-83bf-495f-a7c1-69ae2cdc3f47" d="m1049.69,728.68c-.88-2.72-.34-6.68-.34-6.68,0,0,3.42.93,4.71,3.6.96,1.98.85,5.12.72,6.6-1.73-2.48-4.59-3.38-5.09-3.52Z"/><path class="uuid-e75d7618-83bf-495f-a7c1-69ae2cdc3f47" d="m1049.69,737.52c-.88-2.72-.34-6.68-.34-6.68,0,0,3.42.93,4.71,3.6.96,1.98.85,5.13.72,6.61-1.74-2.49-4.61-3.39-5.09-3.52Z"/><path class="uuid-e75d7618-83bf-495f-a7c1-69ae2cdc3f47" d="m1055.04,752.93c.29,0,.6-.06.79-.11v7.18h-1.59v-7.18c.2.05.51.11.79.11Z"/><path class="uuid-e75d7618-83bf-495f-a7c1-69ae2cdc3f47" d="m1055.29,732.2c-.12-1.48-.24-4.62.72-6.6,1.29-2.66,4.71-3.6,4.71-3.6,0,0,.54,3.96-.34,6.68-.49.14-3.36,1.04-5.09,3.52Z"/><path class="uuid-e75d7618-83bf-495f-a7c1-69ae2cdc3f47" d="m1036.27,731.62l-.06-.02c-.71-2.44-.25-5.81-.25-5.81,0,0,3.07.84,4.24,3.24.81,1.68.77,4.29.67,5.7-1.65-2.24-4.27-3.01-4.6-3.1Z"/><path class="uuid-e75d7618-83bf-495f-a7c1-69ae2cdc3f47" d="m1036.27,739.62l-.06-.02c-.71-2.44-.25-5.81-.25-5.81,0,0,3.07.84,4.24,3.24.81,1.68.77,4.29.67,5.7-1.65-2.24-4.27-3.01-4.6-3.1Z"/><path class="uuid-e75d7618-83bf-495f-a7c1-69ae2cdc3f47" d="m1036.54,748.47c1.16,2.4,4.24,3.24,4.24,3.24,0,0,.59-4.29-.57-6.68-1.16-2.4-4.24-3.24-4.24-3.24,0,0-.59,4.29.57,6.68Z"/><path class="uuid-e75d7618-83bf-495f-a7c1-69ae2cdc3f47" d="m1041.08,753.87c.32,0,.6-.04.79-.08v6.2h-1.59v-6.2c.19.04.47.08.79.08Z"/><path class="uuid-e75d7618-83bf-495f-a7c1-69ae2cdc3f47" d="m1041.08,727.04c-.57-.87-1.28-1.53-1.99-2.03.66-2.23,1.99-4.1,1.99-4.1,0,0,1.33,1.86,1.99,4.1-.71.5-1.42,1.17-1.99,2.03Z"/><path class="uuid-e75d7618-83bf-495f-a7c1-69ae2cdc3f47" d="m1045.89,731.62c-.33.09-2.95.87-4.6,3.1-.1-1.41-.14-4.02.67-5.7,1.16-2.4,4.24-3.24,4.24-3.24,0,0,.46,3.38-.25,5.81l-.06.02Z"/><path class="uuid-e75d7618-83bf-495f-a7c1-69ae2cdc3f47" d="m1045.89,739.62c-.33.09-2.95.87-4.6,3.1-.1-1.41-.14-4.02.67-5.7,1.16-2.4,4.24-3.24,4.24-3.24,0,0,.46,3.38-.25,5.81l-.06.02Z"/><path class="uuid-e75d7618-83bf-495f-a7c1-69ae2cdc3f47" d="m1045.63,748.47c-1.16,2.4-4.24,3.24-4.24,3.24,0,0-.59-4.29.57-6.68,1.16-2.4,4.24-3.24,4.24-3.24,0,0,.59,4.29-.57,6.68Z"/><path class="uuid-e75d7618-83bf-495f-a7c1-69ae2cdc3f47" d="m1064.18,731.62l-.06-.02c-.71-2.44-.25-5.81-.25-5.81,0,0,3.07.84,4.24,3.24.81,1.68.77,4.29.67,5.7-1.65-2.24-4.27-3.01-4.6-3.1Z"/><path class="uuid-e75d7618-83bf-495f-a7c1-69ae2cdc3f47" d="m1064.18,739.62l-.06-.02c-.71-2.44-.25-5.81-.25-5.81,0,0,3.07.84,4.24,3.24.81,1.68.77,4.29.67,5.7-1.65-2.24-4.27-3.01-4.6-3.1Z"/><path class="uuid-e75d7618-83bf-495f-a7c1-69ae2cdc3f47" d="m1064.45,748.47c1.16,2.4,4.24,3.24,4.24,3.24,0,0,.59-4.29-.57-6.68-1.16-2.4-4.24-3.24-4.24-3.24,0,0-.59,4.29.57,6.68Z"/><path class="uuid-e75d7618-83bf-495f-a7c1-69ae2cdc3f47" d="m1068.99,753.87c.32,0,.6-.04.79-.08v6.2h-1.59v-6.2c.19.04.47.08.79.08Z"/><path class="uuid-e75d7618-83bf-495f-a7c1-69ae2cdc3f47" d="m1068.99,727.04c-.57-.87-1.28-1.53-1.99-2.03.66-2.23,1.99-4.1,1.99-4.1,0,0,1.33,1.86,1.99,4.1-.71.5-1.42,1.17-1.99,2.03Z"/><path class="uuid-e75d7618-83bf-495f-a7c1-69ae2cdc3f47" d="m1073.8,731.62c-.33.09-2.95.87-4.6,3.1-.1-1.41-.14-4.02.67-5.7,1.16-2.4,4.24-3.24,4.24-3.24,0,0,.46,3.38-.25,5.81l-.06.02Z"/><path class="uuid-e75d7618-83bf-495f-a7c1-69ae2cdc3f47" d="m1073.8,739.62c-.33.09-2.95.87-4.6,3.1-.1-1.41-.14-4.02.67-5.7,1.16-2.4,4.24-3.24,4.24-3.24,0,0,.46,3.38-.25,5.81l-.06.02Z"/><path class="uuid-e75d7618-83bf-495f-a7c1-69ae2cdc3f47" d="m1073.53,748.47c-1.16,2.4-4.24,3.24-4.24,3.24,0,0-.59-4.29.57-6.68,1.16-2.4,4.24-3.24,4.24-3.24,0,0,.59,4.29-.57,6.68Z"/><path class="uuid-e75d7618-83bf-495f-a7c1-69ae2cdc3f47" d="m1004.17,748.05c1.29,2.21,4.71,2.99,4.71,2.99,0,0,.65-3.96-.64-6.17-1.29-2.21-4.71-2.99-4.71-2.99,0,0-.65,3.96.64,6.17Z"/><path class="uuid-e75d7618-83bf-495f-a7c1-69ae2cdc3f47" d="m1009.48,743.01c-.12-1.23-.24-3.84.72-5.49,1.29-2.21,4.71-2.99,4.71-2.99,0,0,.54,3.29-.34,5.55-.48.11-3.35.86-5.09,2.93Z"/><path class="uuid-e75d7618-83bf-495f-a7c1-69ae2cdc3f47" d="m1014.27,748.05c-1.29,2.21-4.71,2.99-4.71,2.99,0,0-.65-3.96.64-6.17,1.29-2.21,4.71-2.99,4.71-2.99,0,0,.65,3.96-.64,6.17Z"/><path class="uuid-e75d7618-83bf-495f-a7c1-69ae2cdc3f47" d="m1009.22,728.63c-.64-.87-1.49-1.53-2.32-2.02.5-2.29,2.32-4.42,2.32-4.42,0,0,1.82,2.12,2.32,4.42-.83.49-1.68,1.15-2.32,2.02Z"/><path class="uuid-e75d7618-83bf-495f-a7c1-69ae2cdc3f47" d="m1003.88,732.74c-.88-2.26-.34-5.55-.34-5.55,0,0,3.42.78,4.71,2.99.96,1.64.85,4.25.72,5.49-1.73-2.06-4.59-2.81-5.09-2.92Z"/><path class="uuid-e75d7618-83bf-495f-a7c1-69ae2cdc3f47" d="m1003.88,740.08c-.88-2.26-.34-5.55-.34-5.55,0,0,3.42.78,4.71,2.99.96,1.65.85,4.26.72,5.49-1.74-2.07-4.61-2.81-5.09-2.93Z"/><path class="uuid-e75d7618-83bf-495f-a7c1-69ae2cdc3f47" d="m1009.22,752.89c.29,0,.6-.05.79-.09v5.97h-1.59v-5.97c.2.04.51.09.79.09Z"/><path class="uuid-e75d7618-83bf-495f-a7c1-69ae2cdc3f47" d="m1009.47,735.66c-.12-1.23-.24-3.84.72-5.49,1.29-2.21,4.71-2.99,4.71-2.99,0,0,.54,3.29-.34,5.55-.49.12-3.36.86-5.09,2.92Z"/><path class="uuid-e75d7618-83bf-495f-a7c1-69ae2cdc3f47" d="m990.45,735.18h-.06c-.71-2.04-.25-4.84-.25-4.84,0,0,3.07.7,4.24,2.69.81,1.4.77,3.56.67,4.73-1.65-1.86-4.27-2.5-4.6-2.58Z"/><path class="uuid-e75d7618-83bf-495f-a7c1-69ae2cdc3f47" d="m990.45,741.82h-.06c-.71-2.04-.25-4.84-.25-4.84,0,0,3.07.7,4.24,2.69.81,1.4.77,3.56.67,4.73-1.65-1.86-4.27-2.5-4.6-2.58Z"/><path class="uuid-e75d7618-83bf-495f-a7c1-69ae2cdc3f47" d="m990.72,749.18c1.16,1.99,4.24,2.69,4.24,2.69,0,0,.59-3.56-.57-5.56-1.16-1.99-4.24-2.69-4.24-2.69,0,0-.59,3.56.57,5.56Z"/><path class="uuid-e75d7618-83bf-495f-a7c1-69ae2cdc3f47" d="m995.27,753.67c.32,0,.6-.03.79-.06v5.16h-1.59v-5.16c.19.03.47.06.79.06Z"/><path class="uuid-e75d7618-83bf-495f-a7c1-69ae2cdc3f47" d="m995.27,731.37c-.57-.72-1.28-1.27-1.99-1.69.66-1.86,1.99-3.4,1.99-3.4,0,0,1.33,1.55,1.99,3.4-.71.42-1.42.97-1.99,1.69Z"/><path class="uuid-e75d7618-83bf-495f-a7c1-69ae2cdc3f47" d="m1000.08,735.18c-.33.08-2.95.72-4.6,2.58-.1-1.17-.14-3.34.67-4.73,1.16-1.99,4.24-2.69,4.24-2.69,0,0,.46,2.81-.25,4.83h-.06Z"/><path class="uuid-e75d7618-83bf-495f-a7c1-69ae2cdc3f47" d="m1000.08,741.82c-.33.08-2.95.72-4.6,2.58-.1-1.17-.14-3.34.67-4.73,1.16-1.99,4.24-2.69,4.24-2.69,0,0,.46,2.81-.25,4.83h-.06Z"/><path class="uuid-e75d7618-83bf-495f-a7c1-69ae2cdc3f47" d="m999.81,749.18c-1.16,1.99-4.24,2.69-4.24,2.69,0,0-.59-3.56.57-5.56,1.16-1.99,4.24-2.69,4.24-2.69,0,0,.59,3.56-.57,5.56Z"/><path class="uuid-e75d7618-83bf-495f-a7c1-69ae2cdc3f47" d="m1018.36,735.18h-.06c-.71-2.04-.25-4.84-.25-4.84,0,0,3.07.7,4.24,2.69.81,1.4.77,3.56.67,4.73-1.65-1.86-4.27-2.5-4.6-2.58Z"/><path class="uuid-e75d7618-83bf-495f-a7c1-69ae2cdc3f47" d="m1018.36,741.82h-.06c-.71-2.04-.25-4.84-.25-4.84,0,0,3.07.7,4.24,2.69.81,1.4.77,3.56.67,4.73-1.65-1.86-4.27-2.5-4.6-2.58Z"/><path class="uuid-e75d7618-83bf-495f-a7c1-69ae2cdc3f47" d="m1018.63,749.18c1.16,1.99,4.24,2.69,4.24,2.69,0,0,.59-3.56-.57-5.56-1.16-1.99-4.24-2.69-4.24-2.69,0,0-.59,3.56.57,5.56Z"/><path class="uuid-e75d7618-83bf-495f-a7c1-69ae2cdc3f47" d="m1023.17,753.67c.32,0,.6-.03.79-.06v5.16h-1.59v-5.16c.19.03.47.06.79.06Z"/><path class="uuid-e75d7618-83bf-495f-a7c1-69ae2cdc3f47" d="m1023.17,731.37c-.57-.72-1.28-1.27-1.99-1.69.66-1.86,1.99-3.4,1.99-3.4,0,0,1.33,1.55,1.99,3.4-.71.42-1.42.97-1.99,1.69Z"/><path class="uuid-e75d7618-83bf-495f-a7c1-69ae2cdc3f47" d="m1027.99,735.18c-.33.08-2.95.72-4.6,2.58-.1-1.17-.14-3.34.67-4.73,1.16-1.99,4.24-2.69,4.24-2.69,0,0,.46,2.81-.25,4.83h-.06Z"/><path class="uuid-e75d7618-83bf-495f-a7c1-69ae2cdc3f47" d="m1027.99,741.82c-.33.08-2.95.72-4.6,2.58-.1-1.17-.14-3.34.67-4.73,1.16-1.99,4.24-2.69,4.24-2.69,0,0,.46,2.81-.25,4.83h-.06Z"/><path class="uuid-e75d7618-83bf-495f-a7c1-69ae2cdc3f47" d="m1027.72,749.18c-1.16,1.99-4.24,2.69-4.24,2.69,0,0-.59-3.56.57-5.56,1.16-1.99,4.24-2.69,4.24-2.69,0,0,.59,3.56-.57,5.56Z"/><path class="uuid-e75d7618-83bf-495f-a7c1-69ae2cdc3f47" d="m152.71,743.74c1.29,1.91,4.71,2.58,4.71,2.58,0,0,.65-3.42-.64-5.34-1.29-1.91-4.71-2.58-4.71-2.58,0,0-.65,3.42.64,5.34Z"/><path class="uuid-e75d7618-83bf-495f-a7c1-69ae2cdc3f47" d="m158.01,739.38c-.12-1.06-.24-3.32.72-4.75,1.29-1.91,4.71-2.58,4.71-2.58,0,0,.54,2.85-.34,4.8-.48.1-3.35.74-5.09,2.53Z"/><path class="uuid-e75d7618-83bf-495f-a7c1-69ae2cdc3f47" d="m162.8,743.74c-1.29,1.91-4.71,2.58-4.71,2.58,0,0-.65-3.42.64-5.34,1.29-1.91,4.71-2.58,4.71-2.58,0,0,.65,3.42-.64,5.34Z"/><path class="uuid-e75d7618-83bf-495f-a7c1-69ae2cdc3f47" d="m157.76,726.96c-.64-.75-1.49-1.32-2.32-1.75.5-1.98,2.32-3.82,2.32-3.82,0,0,1.82,1.83,2.32,3.82-.83.42-1.68.99-2.32,1.75Z"/><path class="uuid-e75d7618-83bf-495f-a7c1-69ae2cdc3f47" d="m152.41,730.5c-.88-1.95-.34-4.8-.34-4.8,0,0,3.42.67,4.71,2.58.96,1.42.85,3.68.72,4.74-1.73-1.78-4.59-2.43-5.09-2.53Z"/><path class="uuid-e75d7618-83bf-495f-a7c1-69ae2cdc3f47" d="m152.41,736.85c-.88-1.95-.34-4.8-.34-4.8,0,0,3.42.67,4.71,2.58.96,1.42.85,3.68.72,4.75-1.74-1.79-4.61-2.43-5.09-2.53Z"/><path class="uuid-e75d7618-83bf-495f-a7c1-69ae2cdc3f47" d="m157.76,747.92c.29,0,.6-.05.79-.08v5.16h-1.59v-5.16c.2.04.51.08.79.08Z"/><path class="uuid-e75d7618-83bf-495f-a7c1-69ae2cdc3f47" d="m158.01,733.03c-.12-1.06-.24-3.32.72-4.74,1.29-1.91,4.71-2.58,4.71-2.58,0,0,.54,2.85-.34,4.8-.49.1-3.36.75-5.09,2.53Z"/><path class="uuid-e75d7618-83bf-495f-a7c1-69ae2cdc3f47" d="m138.99,732.61h-.06c-.71-1.76-.25-4.19-.25-4.19,0,0,3.07.6,4.24,2.32.81,1.21.77,3.08.67,4.09-1.65-1.61-4.27-2.16-4.6-2.23Z"/><path class="uuid-e75d7618-83bf-495f-a7c1-69ae2cdc3f47" d="m138.99,738.36h-.06c-.71-1.76-.25-4.19-.25-4.19,0,0,3.07.6,4.24,2.32.81,1.21.77,3.08.67,4.09-1.65-1.61-4.27-2.16-4.6-2.23Z"/><path class="uuid-e75d7618-83bf-495f-a7c1-69ae2cdc3f47" d="m139.26,744.72c1.16,1.72,4.24,2.32,4.24,2.32,0,0,.59-3.08-.57-4.8-1.16-1.72-4.24-2.32-4.24-2.32,0,0-.59,3.08.57,4.8Z"/><path class="uuid-e75d7618-83bf-495f-a7c1-69ae2cdc3f47" d="m143.8,748.6c.32,0,.6-.03.79-.06v4.46h-1.59v-4.46c.19.03.47.06.79.06Z"/><path class="uuid-e75d7618-83bf-495f-a7c1-69ae2cdc3f47" d="m143.8,729.32c-.57-.62-1.28-1.1-1.99-1.46.66-1.6,1.99-2.94,1.99-2.94,0,0,1.33,1.34,1.99,2.94-.71.36-1.42.84-1.99,1.46Z"/><path class="uuid-e75d7618-83bf-495f-a7c1-69ae2cdc3f47" d="m148.62,732.61c-.33.07-2.95.62-4.6,2.23-.1-1.01-.14-2.89.67-4.09,1.16-1.72,4.24-2.32,4.24-2.32,0,0,.46,2.43-.25,4.18h-.06Z"/><path class="uuid-e75d7618-83bf-495f-a7c1-69ae2cdc3f47" d="m148.62,738.36c-.33.07-2.95.62-4.6,2.23-.1-1.01-.14-2.89.67-4.09,1.16-1.72,4.24-2.32,4.24-2.32,0,0,.46,2.43-.25,4.18h-.06Z"/><path class="uuid-e75d7618-83bf-495f-a7c1-69ae2cdc3f47" d="m148.35,744.72c-1.16,1.72-4.24,2.32-4.24,2.32,0,0-.59-3.08.57-4.8,1.16-1.72,4.24-2.32,4.24-2.32,0,0,.59,3.08-.57,4.8Z"/><path class="uuid-e75d7618-83bf-495f-a7c1-69ae2cdc3f47" d="m166.9,732.61h-.06c-.71-1.76-.25-4.19-.25-4.19,0,0,3.07.6,4.24,2.32.81,1.21.77,3.08.67,4.09-1.65-1.61-4.27-2.16-4.6-2.23Z"/><path class="uuid-e75d7618-83bf-495f-a7c1-69ae2cdc3f47" d="m166.9,738.36h-.06c-.71-1.76-.25-4.19-.25-4.19,0,0,3.07.6,4.24,2.32.81,1.21.77,3.08.67,4.09-1.65-1.61-4.27-2.16-4.6-2.23Z"/><path class="uuid-e75d7618-83bf-495f-a7c1-69ae2cdc3f47" d="m167.17,744.72c1.16,1.72,4.24,2.32,4.24,2.32,0,0,.59-3.08-.57-4.8-1.16-1.72-4.24-2.32-4.24-2.32,0,0-.59,3.08.57,4.8Z"/><path class="uuid-e75d7618-83bf-495f-a7c1-69ae2cdc3f47" d="m171.71,748.6c.32,0,.6-.03.79-.06v4.46h-1.59v-4.46c.19.03.47.06.79.06Z"/><path class="uuid-e75d7618-83bf-495f-a7c1-69ae2cdc3f47" d="m171.71,729.32c-.57-.62-1.28-1.1-1.99-1.46.66-1.6,1.99-2.94,1.99-2.94,0,0,1.33,1.34,1.99,2.94-.71.36-1.42.84-1.99,1.46Z"/><path class="uuid-e75d7618-83bf-495f-a7c1-69ae2cdc3f47" d="m176.52,732.61c-.33.07-2.95.62-4.6,2.23-.1-1.01-.14-2.89.67-4.09,1.16-1.72,4.24-2.32,4.24-2.32,0,0,.46,2.43-.25,4.18h-.06Z"/><path class="uuid-e75d7618-83bf-495f-a7c1-69ae2cdc3f47" d="m176.52,738.36c-.33.07-2.95.62-4.6,2.23-.1-1.01-.14-2.89.67-4.09,1.16-1.72,4.24-2.32,4.24-2.32,0,0,.46,2.43-.25,4.18h-.06Z"/><path class="uuid-e75d7618-83bf-495f-a7c1-69ae2cdc3f47" d="m176.25,744.72c-1.16,1.72-4.24,2.32-4.24,2.32,0,0-.59-3.08.57-4.8,1.16-1.72,4.24-2.32,4.24-2.32,0,0,.59,3.08-.57,4.8Z"/><path class="uuid-e75d7618-83bf-495f-a7c1-69ae2cdc3f47" d="m109.99,740.11c1.29,2.66,4.71,3.6,4.71,3.6,0,0,.65-4.77-.64-7.43-1.29-2.66-4.71-3.6-4.71-3.6,0,0-.65,4.77.64,7.43Z"/><path class="uuid-e75d7618-83bf-495f-a7c1-69ae2cdc3f47" d="m115.29,734.04c-.12-1.48-.24-4.63.72-6.61,1.29-2.66,4.71-3.6,4.71-3.6,0,0,.54,3.96-.34,6.68-.48.13-3.35,1.03-5.09,3.52Z"/><path class="uuid-e75d7618-83bf-495f-a7c1-69ae2cdc3f47" d="m120.08,740.11c-1.29,2.66-4.71,3.6-4.71,3.6,0,0-.65-4.77.64-7.43,1.29-2.66,4.71-3.6,4.71-3.6,0,0,.65,4.77-.64,7.43Z"/><path class="uuid-e75d7618-83bf-495f-a7c1-69ae2cdc3f47" d="m115.04,716.75c-.64-1.05-1.49-1.84-2.32-2.43.5-2.76,2.32-5.31,2.32-5.31,0,0,1.82,2.55,2.32,5.31-.83.59-1.68,1.38-2.32,2.43Z"/><path class="uuid-e75d7618-83bf-495f-a7c1-69ae2cdc3f47" d="m109.69,721.68c-.88-2.72-.34-6.68-.34-6.68,0,0,3.42.93,4.71,3.6.96,1.98.85,5.12.72,6.6-1.73-2.48-4.59-3.38-5.09-3.52Z"/><path class="uuid-e75d7618-83bf-495f-a7c1-69ae2cdc3f47" d="m109.69,730.52c-.88-2.72-.34-6.68-.34-6.68,0,0,3.42.93,4.71,3.6.96,1.98.85,5.13.72,6.61-1.74-2.49-4.61-3.39-5.09-3.52Z"/><path class="uuid-e75d7618-83bf-495f-a7c1-69ae2cdc3f47" d="m115.04,745.93c.29,0,.6-.06.79-.11v7.18h-1.59v-7.18c.2.05.51.11.79.11Z"/><path class="uuid-e75d7618-83bf-495f-a7c1-69ae2cdc3f47" d="m115.29,725.2c-.12-1.48-.24-4.62.72-6.6,1.29-2.66,4.71-3.6,4.71-3.6,0,0,.54,3.96-.34,6.68-.49.14-3.36,1.04-5.09,3.52Z"/><path class="uuid-e75d7618-83bf-495f-a7c1-69ae2cdc3f47" d="m96.27,724.62l-.06-.02c-.71-2.44-.25-5.81-.25-5.81,0,0,3.07.84,4.24,3.24.81,1.68.77,4.29.67,5.7-1.65-2.24-4.27-3.01-4.6-3.1Z"/><path class="uuid-e75d7618-83bf-495f-a7c1-69ae2cdc3f47" d="m96.27,732.62l-.06-.02c-.71-2.44-.25-5.81-.25-5.81,0,0,3.07.84,4.24,3.24.81,1.68.77,4.29.67,5.7-1.65-2.24-4.27-3.01-4.6-3.1Z"/><path class="uuid-e75d7618-83bf-495f-a7c1-69ae2cdc3f47" d="m96.54,741.47c1.16,2.4,4.24,3.24,4.24,3.24,0,0,.59-4.29-.57-6.68-1.16-2.4-4.24-3.24-4.24-3.24,0,0-.59,4.29.57,6.68Z"/><path class="uuid-e75d7618-83bf-495f-a7c1-69ae2cdc3f47" d="m101.08,746.87c.32,0,.6-.04.79-.08v6.2h-1.59v-6.2c.19.04.47.08.79.08Z"/><path class="uuid-e75d7618-83bf-495f-a7c1-69ae2cdc3f47" d="m101.08,720.04c-.57-.87-1.28-1.53-1.99-2.03.66-2.23,1.99-4.1,1.99-4.1,0,0,1.33,1.86,1.99,4.1-.71.5-1.42,1.17-1.99,2.03Z"/><path class="uuid-e75d7618-83bf-495f-a7c1-69ae2cdc3f47" d="m105.89,724.62c-.33.09-2.95.87-4.6,3.1-.1-1.41-.14-4.02.67-5.7,1.16-2.4,4.24-3.24,4.24-3.24,0,0,.46,3.38-.25,5.81l-.06.02Z"/><path class="uuid-e75d7618-83bf-495f-a7c1-69ae2cdc3f47" d="m105.89,732.62c-.33.09-2.95.87-4.6,3.1-.1-1.41-.14-4.02.67-5.7,1.16-2.4,4.24-3.24,4.24-3.24,0,0,.46,3.38-.25,5.81l-.06.02Z"/><path class="uuid-e75d7618-83bf-495f-a7c1-69ae2cdc3f47" d="m105.63,741.47c-1.16,2.4-4.24,3.24-4.24,3.24,0,0-.59-4.29.57-6.68,1.16-2.4,4.24-3.24,4.24-3.24,0,0,.59,4.29-.57,6.68Z"/><path class="uuid-e75d7618-83bf-495f-a7c1-69ae2cdc3f47" d="m124.18,724.62l-.06-.02c-.71-2.44-.25-5.81-.25-5.81,0,0,3.07.84,4.24,3.24.81,1.68.77,4.29.67,5.7-1.65-2.24-4.27-3.01-4.6-3.1Z"/><path class="uuid-e75d7618-83bf-495f-a7c1-69ae2cdc3f47" d="m124.18,732.62l-.06-.02c-.71-2.44-.25-5.81-.25-5.81,0,0,3.07.84,4.24,3.24.81,1.68.77,4.29.67,5.7-1.65-2.24-4.27-3.01-4.6-3.1Z"/><path class="uuid-e75d7618-83bf-495f-a7c1-69ae2cdc3f47" d="m124.45,741.47c1.16,2.4,4.24,3.24,4.24,3.24,0,0,.59-4.29-.57-6.68-1.16-2.4-4.24-3.24-4.24-3.24,0,0-.59,4.29.57,6.68Z"/><path class="uuid-e75d7618-83bf-495f-a7c1-69ae2cdc3f47" d="m128.99,746.87c.32,0,.6-.04.79-.08v6.2h-1.59v-6.2c.19.04.47.08.79.08Z"/><path class="uuid-e75d7618-83bf-495f-a7c1-69ae2cdc3f47" d="m128.99,720.04c-.57-.87-1.28-1.53-1.99-2.03.66-2.23,1.99-4.1,1.99-4.1,0,0,1.33,1.86,1.99,4.1-.71.5-1.42,1.17-1.99,2.03Z"/><path class="uuid-e75d7618-83bf-495f-a7c1-69ae2cdc3f47" d="m133.8,724.62c-.33.09-2.95.87-4.6,3.1-.1-1.41-.14-4.02.67-5.7,1.16-2.4,4.24-3.24,4.24-3.24,0,0,.46,3.38-.25,5.81l-.06.02Z"/><path class="uuid-e75d7618-83bf-495f-a7c1-69ae2cdc3f47" d="m133.8,732.62c-.33.09-2.95.87-4.6,3.1-.1-1.41-.14-4.02.67-5.7,1.16-2.4,4.24-3.24,4.24-3.24,0,0,.46,3.38-.25,5.81l-.06.02Z"/><path class="uuid-e75d7618-83bf-495f-a7c1-69ae2cdc3f47" d="m133.53,741.47c-1.16,2.4-4.24,3.24-4.24,3.24,0,0-.59-4.29.57-6.68,1.16-2.4,4.24-3.24,4.24-3.24,0,0,.59,4.29-.57,6.68Z"/><path class="uuid-e75d7618-83bf-495f-a7c1-69ae2cdc3f47" d="m64.17,741.05c1.29,2.21,4.71,2.99,4.71,2.99,0,0,.65-3.96-.64-6.17-1.29-2.21-4.71-2.99-4.71-2.99,0,0-.65,3.96.64,6.17Z"/><path class="uuid-e75d7618-83bf-495f-a7c1-69ae2cdc3f47" d="m69.48,736.01c-.12-1.23-.24-3.84.72-5.49,1.29-2.21,4.71-2.99,4.71-2.99,0,0,.54,3.29-.34,5.55-.48.11-3.35.86-5.09,2.93Z"/><path class="uuid-e75d7618-83bf-495f-a7c1-69ae2cdc3f47" d="m74.27,741.05c-1.29,2.21-4.71,2.99-4.71,2.99,0,0-.65-3.96.64-6.17,1.29-2.21,4.71-2.99,4.71-2.99,0,0,.65,3.96-.64,6.17Z"/><path class="uuid-e75d7618-83bf-495f-a7c1-69ae2cdc3f47" d="m69.22,721.63c-.64-.87-1.49-1.53-2.32-2.02.5-2.29,2.32-4.42,2.32-4.42,0,0,1.82,2.12,2.32,4.42-.83.49-1.68,1.15-2.32,2.02Z"/><path class="uuid-e75d7618-83bf-495f-a7c1-69ae2cdc3f47" d="m63.88,725.74c-.88-2.26-.34-5.55-.34-5.55,0,0,3.42.78,4.71,2.99.96,1.64.85,4.25.72,5.49-1.73-2.06-4.59-2.81-5.09-2.92Z"/><path class="uuid-e75d7618-83bf-495f-a7c1-69ae2cdc3f47" d="m63.88,733.08c-.88-2.26-.34-5.55-.34-5.55,0,0,3.42.78,4.71,2.99.96,1.65.85,4.26.72,5.49-1.74-2.07-4.61-2.81-5.09-2.93Z"/><path class="uuid-e75d7618-83bf-495f-a7c1-69ae2cdc3f47" d="m69.22,745.89c.29,0,.6-.05.79-.09v5.97h-1.59v-5.97c.2.04.51.09.79.09Z"/><path class="uuid-e75d7618-83bf-495f-a7c1-69ae2cdc3f47" d="m69.47,728.66c-.12-1.23-.24-3.84.72-5.49,1.29-2.21,4.71-2.99,4.71-2.99,0,0,.54,3.29-.34,5.55-.49.12-3.36.86-5.09,2.92Z"/><path class="uuid-e75d7618-83bf-495f-a7c1-69ae2cdc3f47" d="m50.45,728.18h-.06c-.71-2.04-.25-4.84-.25-4.84,0,0,3.07.7,4.24,2.69.81,1.4.77,3.56.67,4.73-1.65-1.86-4.27-2.5-4.6-2.58Z"/><path class="uuid-e75d7618-83bf-495f-a7c1-69ae2cdc3f47" d="m50.45,734.82h-.06c-.71-2.04-.25-4.84-.25-4.84,0,0,3.07.7,4.24,2.69.81,1.4.77,3.56.67,4.73-1.65-1.86-4.27-2.5-4.6-2.58Z"/><path class="uuid-e75d7618-83bf-495f-a7c1-69ae2cdc3f47" d="m50.72,742.18c1.16,1.99,4.24,2.69,4.24,2.69,0,0,.59-3.56-.57-5.56-1.16-1.99-4.24-2.69-4.24-2.69,0,0-.59,3.56.57,5.56Z"/><path class="uuid-e75d7618-83bf-495f-a7c1-69ae2cdc3f47" d="m55.27,746.67c.32,0,.6-.03.79-.06v5.16h-1.59v-5.16c.19.03.47.06.79.06Z"/><path class="uuid-e75d7618-83bf-495f-a7c1-69ae2cdc3f47" d="m55.27,724.37c-.57-.72-1.28-1.27-1.99-1.69.66-1.86,1.99-3.4,1.99-3.4,0,0,1.33,1.55,1.99,3.4-.71.42-1.42.97-1.99,1.69Z"/><path class="uuid-e75d7618-83bf-495f-a7c1-69ae2cdc3f47" d="m60.08,728.18c-.33.08-2.95.72-4.6,2.58-.1-1.17-.14-3.34.67-4.73,1.16-1.99,4.24-2.69,4.24-2.69,0,0,.46,2.81-.25,4.83h-.06Z"/><path class="uuid-e75d7618-83bf-495f-a7c1-69ae2cdc3f47" d="m60.08,734.82c-.33.08-2.95.72-4.6,2.58-.1-1.17-.14-3.34.67-4.73,1.16-1.99,4.24-2.69,4.24-2.69,0,0,.46,2.81-.25,4.83h-.06Z"/><path class="uuid-e75d7618-83bf-495f-a7c1-69ae2cdc3f47" d="m59.81,742.18c-1.16,1.99-4.24,2.69-4.24,2.69,0,0-.59-3.56.57-5.56,1.16-1.99,4.24-2.69,4.24-2.69,0,0,.59,3.56-.57,5.56Z"/><path class="uuid-e75d7618-83bf-495f-a7c1-69ae2cdc3f47" d="m78.36,728.18h-.06c-.71-2.04-.25-4.84-.25-4.84,0,0,3.07.7,4.24,2.69.81,1.4.77,3.56.67,4.73-1.65-1.86-4.27-2.5-4.6-2.58Z"/><path class="uuid-e75d7618-83bf-495f-a7c1-69ae2cdc3f47" d="m78.36,734.82h-.06c-.71-2.04-.25-4.84-.25-4.84,0,0,3.07.7,4.24,2.69.81,1.4.77,3.56.67,4.73-1.65-1.86-4.27-2.5-4.6-2.58Z"/><path class="uuid-e75d7618-83bf-495f-a7c1-69ae2cdc3f47" d="m78.63,742.18c1.16,1.99,4.24,2.69,4.24,2.69,0,0,.59-3.56-.57-5.56-1.16-1.99-4.24-2.69-4.24-2.69,0,0-.59,3.56.57,5.56Z"/><path class="uuid-e75d7618-83bf-495f-a7c1-69ae2cdc3f47" d="m83.17,746.67c.32,0,.6-.03.79-.06v5.16h-1.59v-5.16c.19.03.47.06.79.06Z"/><path class="uuid-e75d7618-83bf-495f-a7c1-69ae2cdc3f47" d="m83.17,724.37c-.57-.72-1.28-1.27-1.99-1.69.66-1.86,1.99-3.4,1.99-3.4,0,0,1.33,1.55,1.99,3.4-.71.42-1.42.97-1.99,1.69Z"/><path class="uuid-e75d7618-83bf-495f-a7c1-69ae2cdc3f47" d="m87.99,728.18c-.33.08-2.95.72-4.6,2.58-.1-1.17-.14-3.34.67-4.73,1.16-1.99,4.24-2.69,4.24-2.69,0,0,.46,2.81-.25,4.83h-.06Z"/><path class="uuid-e75d7618-83bf-495f-a7c1-69ae2cdc3f47" d="m87.99,734.82c-.33.08-2.95.72-4.6,2.58-.1-1.17-.14-3.34.67-4.73,1.16-1.99,4.24-2.69,4.24-2.69,0,0,.46,2.81-.25,4.83h-.06Z"/><path class="uuid-e75d7618-83bf-495f-a7c1-69ae2cdc3f47" d="m87.72,742.18c-1.16,1.99-4.24,2.69-4.24,2.69,0,0-.59-3.56.57-5.56,1.16-1.99,4.24-2.69,4.24-2.69,0,0,.59,3.56-.57,5.56Z"/><path class="uuid-e75d7618-83bf-495f-a7c1-69ae2cdc3f47" d="m469.71,740.74c1.29,1.91,4.71,2.58,4.71,2.58,0,0,.65-3.42-.64-5.34-1.29-1.91-4.71-2.58-4.71-2.58,0,0-.65,3.42.64,5.34Z"/><path class="uuid-e75d7618-83bf-495f-a7c1-69ae2cdc3f47" d="m475.01,736.38c-.12-1.06-.24-3.32.72-4.75,1.29-1.91,4.71-2.58,4.71-2.58,0,0,.54,2.85-.34,4.8-.48.1-3.35.74-5.09,2.53Z"/><path class="uuid-e75d7618-83bf-495f-a7c1-69ae2cdc3f47" d="m479.8,740.74c-1.29,1.91-4.71,2.58-4.71,2.58,0,0-.65-3.42.64-5.34,1.29-1.91,4.71-2.58,4.71-2.58,0,0,.65,3.42-.64,5.34Z"/><path class="uuid-e75d7618-83bf-495f-a7c1-69ae2cdc3f47" d="m474.76,723.96c-.64-.75-1.49-1.32-2.32-1.75.5-1.98,2.32-3.82,2.32-3.82,0,0,1.82,1.83,2.32,3.82-.83.42-1.68.99-2.32,1.75Z"/><path class="uuid-e75d7618-83bf-495f-a7c1-69ae2cdc3f47" d="m469.41,727.5c-.88-1.95-.34-4.8-.34-4.8,0,0,3.42.67,4.71,2.58.96,1.42.85,3.68.72,4.74-1.73-1.78-4.59-2.43-5.09-2.53Z"/><path class="uuid-e75d7618-83bf-495f-a7c1-69ae2cdc3f47" d="m469.41,733.85c-.88-1.95-.34-4.8-.34-4.8,0,0,3.42.67,4.71,2.58.96,1.42.85,3.68.72,4.75-1.74-1.79-4.61-2.43-5.09-2.53Z"/><path class="uuid-e75d7618-83bf-495f-a7c1-69ae2cdc3f47" d="m474.76,744.92c.29,0,.6-.05.79-.08v5.16h-1.59v-5.16c.2.04.51.08.79.08Z"/><path class="uuid-e75d7618-83bf-495f-a7c1-69ae2cdc3f47" d="m475.01,730.03c-.12-1.06-.24-3.32.72-4.74,1.29-1.91,4.71-2.58,4.71-2.58,0,0,.54,2.85-.34,4.8-.49.1-3.36.75-5.09,2.53Z"/><path class="uuid-e75d7618-83bf-495f-a7c1-69ae2cdc3f47" d="m455.99,729.61h-.06c-.71-1.76-.25-4.19-.25-4.19,0,0,3.07.6,4.24,2.32.81,1.21.77,3.08.67,4.09-1.65-1.61-4.27-2.16-4.6-2.23Z"/><path class="uuid-e75d7618-83bf-495f-a7c1-69ae2cdc3f47" d="m455.99,735.36h-.06c-.71-1.76-.25-4.19-.25-4.19,0,0,3.07.6,4.24,2.32.81,1.21.77,3.08.67,4.09-1.65-1.61-4.27-2.16-4.6-2.23Z"/><path class="uuid-e75d7618-83bf-495f-a7c1-69ae2cdc3f47" d="m456.26,741.72c1.16,1.72,4.24,2.32,4.24,2.32,0,0,.59-3.08-.57-4.8-1.16-1.72-4.24-2.32-4.24-2.32,0,0-.59,3.08.57,4.8Z"/><path class="uuid-e75d7618-83bf-495f-a7c1-69ae2cdc3f47" d="m460.8,745.6c.32,0,.6-.03.79-.06v4.46h-1.59v-4.46c.19.03.47.06.79.06Z"/><path class="uuid-e75d7618-83bf-495f-a7c1-69ae2cdc3f47" d="m460.8,726.32c-.57-.62-1.28-1.1-1.99-1.46.66-1.6,1.99-2.94,1.99-2.94,0,0,1.33,1.34,1.99,2.94-.71.36-1.42.84-1.99,1.46Z"/><path class="uuid-e75d7618-83bf-495f-a7c1-69ae2cdc3f47" d="m465.62,729.61c-.33.07-2.95.62-4.6,2.23-.1-1.01-.14-2.89.67-4.09,1.16-1.72,4.24-2.32,4.24-2.32,0,0,.46,2.43-.25,4.18h-.06Z"/><path class="uuid-e75d7618-83bf-495f-a7c1-69ae2cdc3f47" d="m465.62,735.36c-.33.07-2.95.62-4.6,2.23-.1-1.01-.14-2.89.67-4.09,1.16-1.72,4.24-2.32,4.24-2.32,0,0,.46,2.43-.25,4.18h-.06Z"/><path class="uuid-e75d7618-83bf-495f-a7c1-69ae2cdc3f47" d="m465.35,741.72c-1.16,1.72-4.24,2.32-4.24,2.32,0,0-.59-3.08.57-4.8,1.16-1.72,4.24-2.32,4.24-2.32,0,0,.59,3.08-.57,4.8Z"/><path class="uuid-e75d7618-83bf-495f-a7c1-69ae2cdc3f47" d="m483.9,729.61h-.06c-.71-1.76-.25-4.19-.25-4.19,0,0,3.07.6,4.24,2.32.81,1.21.77,3.08.67,4.09-1.65-1.61-4.27-2.16-4.6-2.23Z"/><path class="uuid-e75d7618-83bf-495f-a7c1-69ae2cdc3f47" d="m483.9,735.36h-.06c-.71-1.76-.25-4.19-.25-4.19,0,0,3.07.6,4.24,2.32.81,1.21.77,3.08.67,4.09-1.65-1.61-4.27-2.16-4.6-2.23Z"/><path class="uuid-e75d7618-83bf-495f-a7c1-69ae2cdc3f47" d="m484.17,741.72c1.16,1.72,4.24,2.32,4.24,2.32,0,0,.59-3.08-.57-4.8-1.16-1.72-4.24-2.32-4.24-2.32,0,0-.59,3.08.57,4.8Z"/><path class="uuid-e75d7618-83bf-495f-a7c1-69ae2cdc3f47" d="m488.71,745.6c.32,0,.6-.03.79-.06v4.46h-1.59v-4.46c.19.03.47.06.79.06Z"/><path class="uuid-e75d7618-83bf-495f-a7c1-69ae2cdc3f47" d="m488.71,726.32c-.57-.62-1.28-1.1-1.99-1.46.66-1.6,1.99-2.94,1.99-2.94,0,0,1.33,1.34,1.99,2.94-.71.36-1.42.84-1.99,1.46Z"/><path class="uuid-e75d7618-83bf-495f-a7c1-69ae2cdc3f47" d="m493.52,729.61c-.33.07-2.95.62-4.6,2.23-.1-1.01-.14-2.89.67-4.09,1.16-1.72,4.24-2.32,4.24-2.32,0,0,.46,2.43-.25,4.18h-.06Z"/><path class="uuid-e75d7618-83bf-495f-a7c1-69ae2cdc3f47" d="m493.52,735.36c-.33.07-2.95.62-4.6,2.23-.1-1.01-.14-2.89.67-4.09,1.16-1.72,4.24-2.32,4.24-2.32,0,0,.46,2.43-.25,4.18h-.06Z"/><path class="uuid-e75d7618-83bf-495f-a7c1-69ae2cdc3f47" d="m493.25,741.72c-1.16,1.72-4.24,2.32-4.24,2.32,0,0-.59-3.08.57-4.8,1.16-1.72,4.24-2.32,4.24-2.32,0,0,.59,3.08-.57,4.8Z"/><path class="uuid-e75d7618-83bf-495f-a7c1-69ae2cdc3f47" d="m426.99,737.11c1.29,2.66,4.71,3.6,4.71,3.6,0,0,.65-4.77-.64-7.43-1.29-2.66-4.71-3.6-4.71-3.6,0,0-.65,4.77.64,7.43Z"/><path class="uuid-e75d7618-83bf-495f-a7c1-69ae2cdc3f47" d="m432.29,731.04c-.12-1.48-.24-4.63.72-6.61,1.29-2.66,4.71-3.6,4.71-3.6,0,0,.54,3.96-.34,6.68-.48.13-3.35,1.03-5.09,3.52Z"/><path class="uuid-e75d7618-83bf-495f-a7c1-69ae2cdc3f47" d="m437.08,737.11c-1.29,2.66-4.71,3.6-4.71,3.6,0,0-.65-4.77.64-7.43,1.29-2.66,4.71-3.6,4.71-3.6,0,0,.65,4.77-.64,7.43Z"/><path class="uuid-e75d7618-83bf-495f-a7c1-69ae2cdc3f47" d="m432.04,713.75c-.64-1.05-1.49-1.84-2.32-2.43.5-2.76,2.32-5.31,2.32-5.31,0,0,1.82,2.55,2.32,5.31-.83.59-1.68,1.38-2.32,2.43Z"/><path class="uuid-e75d7618-83bf-495f-a7c1-69ae2cdc3f47" d="m426.69,718.68c-.88-2.72-.34-6.68-.34-6.68,0,0,3.42.93,4.71,3.6.96,1.98.85,5.12.72,6.6-1.73-2.48-4.59-3.38-5.09-3.52Z"/><path class="uuid-e75d7618-83bf-495f-a7c1-69ae2cdc3f47" d="m426.69,727.52c-.88-2.72-.34-6.68-.34-6.68,0,0,3.42.93,4.71,3.6.96,1.98.85,5.13.72,6.61-1.74-2.49-4.61-3.39-5.09-3.52Z"/><path class="uuid-e75d7618-83bf-495f-a7c1-69ae2cdc3f47" d="m432.04,742.93c.29,0,.6-.06.79-.11v7.18h-1.59v-7.18c.2.05.51.11.79.11Z"/><path class="uuid-e75d7618-83bf-495f-a7c1-69ae2cdc3f47" d="m432.29,722.2c-.12-1.48-.24-4.62.72-6.6,1.29-2.66,4.71-3.6,4.71-3.6,0,0,.54,3.96-.34,6.68-.49.14-3.36,1.04-5.09,3.52Z"/><path class="uuid-e75d7618-83bf-495f-a7c1-69ae2cdc3f47" d="m413.27,721.62l-.06-.02c-.71-2.44-.25-5.81-.25-5.81,0,0,3.07.84,4.24,3.24.81,1.68.77,4.29.67,5.7-1.65-2.24-4.27-3.01-4.6-3.1Z"/><path class="uuid-e75d7618-83bf-495f-a7c1-69ae2cdc3f47" d="m413.27,729.62l-.06-.02c-.71-2.44-.25-5.81-.25-5.81,0,0,3.07.84,4.24,3.24.81,1.68.77,4.29.67,5.7-1.65-2.24-4.27-3.01-4.6-3.1Z"/><path class="uuid-e75d7618-83bf-495f-a7c1-69ae2cdc3f47" d="m413.54,738.47c1.16,2.4,4.24,3.24,4.24,3.24,0,0,.59-4.29-.57-6.68-1.16-2.4-4.24-3.24-4.24-3.24,0,0-.59,4.29.57,6.68Z"/><path class="uuid-e75d7618-83bf-495f-a7c1-69ae2cdc3f47" d="m418.08,743.87c.32,0,.6-.04.79-.08v6.2h-1.59v-6.2c.19.04.47.08.79.08Z"/><path class="uuid-e75d7618-83bf-495f-a7c1-69ae2cdc3f47" d="m418.08,717.04c-.57-.87-1.28-1.53-1.99-2.03.66-2.23,1.99-4.1,1.99-4.1,0,0,1.33,1.86,1.99,4.1-.71.5-1.42,1.17-1.99,2.03Z"/><path class="uuid-e75d7618-83bf-495f-a7c1-69ae2cdc3f47" d="m422.89,721.62c-.33.09-2.95.87-4.6,3.1-.1-1.41-.14-4.02.67-5.7,1.16-2.4,4.24-3.24,4.24-3.24,0,0,.46,3.38-.25,5.81l-.06.02Z"/><path class="uuid-e75d7618-83bf-495f-a7c1-69ae2cdc3f47" d="m422.89,729.62c-.33.09-2.95.87-4.6,3.1-.1-1.41-.14-4.02.67-5.7,1.16-2.4,4.24-3.24,4.24-3.24,0,0,.46,3.38-.25,5.81l-.06.02Z"/><path class="uuid-e75d7618-83bf-495f-a7c1-69ae2cdc3f47" d="m422.63,738.47c-1.16,2.4-4.24,3.24-4.24,3.24,0,0-.59-4.29.57-6.68,1.16-2.4,4.24-3.24,4.24-3.24,0,0,.59,4.29-.57,6.68Z"/><path class="uuid-e75d7618-83bf-495f-a7c1-69ae2cdc3f47" d="m441.18,721.62l-.06-.02c-.71-2.44-.25-5.81-.25-5.81,0,0,3.07.84,4.24,3.24.81,1.68.77,4.29.67,5.7-1.65-2.24-4.27-3.01-4.6-3.1Z"/><path class="uuid-e75d7618-83bf-495f-a7c1-69ae2cdc3f47" d="m441.18,729.62l-.06-.02c-.71-2.44-.25-5.81-.25-5.81,0,0,3.07.84,4.24,3.24.81,1.68.77,4.29.67,5.7-1.65-2.24-4.27-3.01-4.6-3.1Z"/><path class="uuid-e75d7618-83bf-495f-a7c1-69ae2cdc3f47" d="m441.45,738.47c1.16,2.4,4.24,3.24,4.24,3.24,0,0,.59-4.29-.57-6.68-1.16-2.4-4.24-3.24-4.24-3.24,0,0-.59,4.29.57,6.68Z"/><path class="uuid-e75d7618-83bf-495f-a7c1-69ae2cdc3f47" d="m445.99,743.87c.32,0,.6-.04.79-.08v6.2h-1.59v-6.2c.19.04.47.08.79.08Z"/><path class="uuid-e75d7618-83bf-495f-a7c1-69ae2cdc3f47" d="m445.99,717.04c-.57-.87-1.28-1.53-1.99-2.03.66-2.23,1.99-4.1,1.99-4.1,0,0,1.33,1.86,1.99,4.1-.71.5-1.42,1.17-1.99,2.03Z"/><path class="uuid-e75d7618-83bf-495f-a7c1-69ae2cdc3f47" d="m450.8,721.62c-.33.09-2.95.87-4.6,3.1-.1-1.41-.14-4.02.67-5.7,1.16-2.4,4.24-3.24,4.24-3.24,0,0,.46,3.38-.25,5.81l-.06.02Z"/><path class="uuid-e75d7618-83bf-495f-a7c1-69ae2cdc3f47" d="m450.8,729.62c-.33.09-2.95.87-4.6,3.1-.1-1.41-.14-4.02.67-5.7,1.16-2.4,4.24-3.24,4.24-3.24,0,0,.46,3.38-.25,5.81l-.06.02Z"/><path class="uuid-e75d7618-83bf-495f-a7c1-69ae2cdc3f47" d="m450.53,738.47c-1.16,2.4-4.24,3.24-4.24,3.24,0,0-.59-4.29.57-6.68,1.16-2.4,4.24-3.24,4.24-3.24,0,0,.59,4.29-.57,6.68Z"/><path class="uuid-e75d7618-83bf-495f-a7c1-69ae2cdc3f47" d="m381.17,738.05c1.29,2.21,4.71,2.99,4.71,2.99,0,0,.65-3.96-.64-6.17-1.29-2.21-4.71-2.99-4.71-2.99,0,0-.65,3.96.64,6.17Z"/><path class="uuid-e75d7618-83bf-495f-a7c1-69ae2cdc3f47" d="m386.48,733.01c-.12-1.23-.24-3.84.72-5.49,1.29-2.21,4.71-2.99,4.71-2.99,0,0,.54,3.29-.34,5.55-.48.11-3.35.86-5.09,2.93Z"/><path class="uuid-e75d7618-83bf-495f-a7c1-69ae2cdc3f47" d="m391.27,738.05c-1.29,2.21-4.71,2.99-4.71,2.99,0,0-.65-3.96.64-6.17,1.29-2.21,4.71-2.99,4.71-2.99,0,0,.65,3.96-.64,6.17Z"/><path class="uuid-e75d7618-83bf-495f-a7c1-69ae2cdc3f47" d="m386.22,718.63c-.64-.87-1.49-1.53-2.32-2.02.5-2.29,2.32-4.42,2.32-4.42,0,0,1.82,2.12,2.32,4.42-.83.49-1.68,1.15-2.32,2.02Z"/><path class="uuid-e75d7618-83bf-495f-a7c1-69ae2cdc3f47" d="m380.88,722.74c-.88-2.26-.34-5.55-.34-5.55,0,0,3.42.78,4.71,2.99.96,1.64.85,4.25.72,5.49-1.73-2.06-4.59-2.81-5.09-2.92Z"/><path class="uuid-e75d7618-83bf-495f-a7c1-69ae2cdc3f47" d="m380.88,730.08c-.88-2.26-.34-5.55-.34-5.55,0,0,3.42.78,4.71,2.99.96,1.65.85,4.26.72,5.49-1.74-2.07-4.61-2.81-5.09-2.93Z"/><path class="uuid-e75d7618-83bf-495f-a7c1-69ae2cdc3f47" d="m386.22,742.89c.29,0,.6-.05.79-.09v5.97h-1.59v-5.97c.2.04.51.09.79.09Z"/><path class="uuid-e75d7618-83bf-495f-a7c1-69ae2cdc3f47" d="m386.47,725.66c-.12-1.23-.24-3.84.72-5.49,1.29-2.21,4.71-2.99,4.71-2.99,0,0,.54,3.29-.34,5.55-.49.12-3.36.86-5.09,2.92Z"/><path class="uuid-e75d7618-83bf-495f-a7c1-69ae2cdc3f47" d="m367.45,725.18h-.06c-.71-2.04-.25-4.84-.25-4.84,0,0,3.07.7,4.24,2.69.81,1.4.77,3.56.67,4.73-1.65-1.86-4.27-2.5-4.6-2.58Z"/><path class="uuid-e75d7618-83bf-495f-a7c1-69ae2cdc3f47" d="m367.45,731.82h-.06c-.71-2.04-.25-4.84-.25-4.84,0,0,3.07.7,4.24,2.69.81,1.4.77,3.56.67,4.73-1.65-1.86-4.27-2.5-4.6-2.58Z"/><path class="uuid-e75d7618-83bf-495f-a7c1-69ae2cdc3f47" d="m367.72,739.18c1.16,1.99,4.24,2.69,4.24,2.69,0,0,.59-3.56-.57-5.56-1.16-1.99-4.24-2.69-4.24-2.69,0,0-.59,3.56.57,5.56Z"/><path class="uuid-e75d7618-83bf-495f-a7c1-69ae2cdc3f47" d="m372.27,743.67c.32,0,.6-.03.79-.06v5.16h-1.59v-5.16c.19.03.47.06.79.06Z"/><path class="uuid-e75d7618-83bf-495f-a7c1-69ae2cdc3f47" d="m372.27,721.37c-.57-.72-1.28-1.27-1.99-1.69.66-1.86,1.99-3.4,1.99-3.4,0,0,1.33,1.55,1.99,3.4-.71.42-1.42.97-1.99,1.69Z"/><path class="uuid-e75d7618-83bf-495f-a7c1-69ae2cdc3f47" d="m377.08,725.18c-.33.08-2.95.72-4.6,2.58-.1-1.17-.14-3.34.67-4.73,1.16-1.99,4.24-2.69,4.24-2.69,0,0,.46,2.81-.25,4.83h-.06Z"/><path class="uuid-e75d7618-83bf-495f-a7c1-69ae2cdc3f47" d="m377.08,731.82c-.33.08-2.95.72-4.6,2.58-.1-1.17-.14-3.34.67-4.73,1.16-1.99,4.24-2.69,4.24-2.69,0,0,.46,2.81-.25,4.83h-.06Z"/><path class="uuid-e75d7618-83bf-495f-a7c1-69ae2cdc3f47" d="m376.81,739.18c-1.16,1.99-4.24,2.69-4.24,2.69,0,0-.59-3.56.57-5.56,1.16-1.99,4.24-2.69,4.24-2.69,0,0,.59,3.56-.57,5.56Z"/><path class="uuid-e75d7618-83bf-495f-a7c1-69ae2cdc3f47" d="m395.36,725.18h-.06c-.71-2.04-.25-4.84-.25-4.84,0,0,3.07.7,4.24,2.69.81,1.4.77,3.56.67,4.73-1.65-1.86-4.27-2.5-4.6-2.58Z"/><path class="uuid-e75d7618-83bf-495f-a7c1-69ae2cdc3f47" d="m395.36,731.82h-.06c-.71-2.04-.25-4.84-.25-4.84,0,0,3.07.7,4.24,2.69.81,1.4.77,3.56.67,4.73-1.65-1.86-4.27-2.5-4.6-2.58Z"/><path class="uuid-e75d7618-83bf-495f-a7c1-69ae2cdc3f47" d="m395.63,739.18c1.16,1.99,4.24,2.69,4.24,2.69,0,0,.59-3.56-.57-5.56-1.16-1.99-4.24-2.69-4.24-2.69,0,0-.59,3.56.57,5.56Z"/><path class="uuid-e75d7618-83bf-495f-a7c1-69ae2cdc3f47" d="m400.17,743.67c.32,0,.6-.03.79-.06v5.16h-1.59v-5.16c.19.03.47.06.79.06Z"/><path class="uuid-e75d7618-83bf-495f-a7c1-69ae2cdc3f47" d="m400.17,721.37c-.57-.72-1.28-1.27-1.99-1.69.66-1.86,1.99-3.4,1.99-3.4,0,0,1.33,1.55,1.99,3.4-.71.42-1.42.97-1.99,1.69Z"/><path class="uuid-e75d7618-83bf-495f-a7c1-69ae2cdc3f47" d="m404.99,725.18c-.33.08-2.95.72-4.6,2.58-.1-1.17-.14-3.34.67-4.73,1.16-1.99,4.24-2.69,4.24-2.69,0,0,.46,2.81-.25,4.83h-.06Z"/><path class="uuid-e75d7618-83bf-495f-a7c1-69ae2cdc3f47" d="m404.99,731.82c-.33.08-2.95.72-4.6,2.58-.1-1.17-.14-3.34.67-4.73,1.16-1.99,4.24-2.69,4.24-2.69,0,0,.46,2.81-.25,4.83h-.06Z"/><path class="uuid-e75d7618-83bf-495f-a7c1-69ae2cdc3f47" d="m404.72,739.18c-1.16,1.99-4.24,2.69-4.24,2.69,0,0-.59-3.56.57-5.56,1.16-1.99,4.24-2.69,4.24-2.69,0,0,.59,3.56-.57,5.56Z"/><polygon class="uuid-fa27e9be-0e40-4fcf-9209-deddb9800eb8" points="1266.57 736.58 1266.58 736.58 1266.58 736.58 1266.57 736.58"/><path class="uuid-e75d7618-83bf-495f-a7c1-69ae2cdc3f47" d="m1317.71,750.74c1.29,1.91,4.71,2.58,4.71,2.58,0,0,.65-3.42-.64-5.34-1.29-1.91-4.71-2.58-4.71-2.58,0,0-.65,3.42.64,5.34Z"/><path class="uuid-e75d7618-83bf-495f-a7c1-69ae2cdc3f47" d="m1323.01,746.38c-.12-1.06-.24-3.32.72-4.75,1.29-1.91,4.71-2.58,4.71-2.58,0,0,.54,2.85-.34,4.8-.48.1-3.35.74-5.09,2.53Z"/><path class="uuid-e75d7618-83bf-495f-a7c1-69ae2cdc3f47" d="m1327.8,750.74c-1.29,1.91-4.71,2.58-4.71,2.58,0,0-.65-3.42.64-5.34,1.29-1.91,4.71-2.58,4.71-2.58,0,0,.65,3.42-.64,5.34Z"/><path class="uuid-e75d7618-83bf-495f-a7c1-69ae2cdc3f47" d="m1322.76,733.96c-.64-.75-1.49-1.32-2.32-1.75.5-1.98,2.32-3.82,2.32-3.82,0,0,1.82,1.83,2.32,3.82-.83.42-1.68.99-2.32,1.75Z"/><path class="uuid-e75d7618-83bf-495f-a7c1-69ae2cdc3f47" d="m1317.41,737.5c-.88-1.95-.34-4.8-.34-4.8,0,0,3.42.67,4.71,2.58.96,1.42.85,3.68.72,4.74-1.73-1.78-4.59-2.43-5.09-2.53Z"/><path class="uuid-e75d7618-83bf-495f-a7c1-69ae2cdc3f47" d="m1317.41,743.85c-.88-1.95-.34-4.8-.34-4.8,0,0,3.42.67,4.71,2.58.96,1.42.85,3.68.72,4.75-1.74-1.79-4.61-2.43-5.09-2.53Z"/><path class="uuid-e75d7618-83bf-495f-a7c1-69ae2cdc3f47" d="m1322.76,754.92c.29,0,.6-.05.79-.08v5.16h-1.59v-5.16c.2.04.51.08.79.08Z"/><path class="uuid-e75d7618-83bf-495f-a7c1-69ae2cdc3f47" d="m1323.01,740.03c-.12-1.06-.24-3.32.72-4.74,1.29-1.91,4.71-2.58,4.71-2.58,0,0,.54,2.85-.34,4.8-.49.1-3.36.75-5.09,2.53Z"/><path class="uuid-e75d7618-83bf-495f-a7c1-69ae2cdc3f47" d="m1303.99,739.61h-.06c-.71-1.76-.25-4.19-.25-4.19,0,0,3.07.6,4.24,2.32.81,1.21.77,3.08.67,4.09-1.65-1.61-4.27-2.16-4.6-2.23Z"/><path class="uuid-e75d7618-83bf-495f-a7c1-69ae2cdc3f47" d="m1303.99,745.36h-.06c-.71-1.76-.25-4.19-.25-4.19,0,0,3.07.6,4.24,2.32.81,1.21.77,3.08.67,4.09-1.65-1.61-4.27-2.16-4.6-2.23Z"/><path class="uuid-e75d7618-83bf-495f-a7c1-69ae2cdc3f47" d="m1304.26,751.72c1.16,1.72,4.24,2.32,4.24,2.32,0,0,.59-3.08-.57-4.8-1.16-1.72-4.24-2.32-4.24-2.32,0,0-.59,3.08.57,4.8Z"/><path class="uuid-e75d7618-83bf-495f-a7c1-69ae2cdc3f47" d="m1308.8,755.6c.32,0,.6-.03.79-.06v4.46h-1.59v-4.46c.19.03.47.06.79.06Z"/><path class="uuid-e75d7618-83bf-495f-a7c1-69ae2cdc3f47" d="m1308.8,736.32c-.57-.62-1.28-1.1-1.99-1.46.66-1.6,1.99-2.94,1.99-2.94,0,0,1.33,1.34,1.99,2.94-.71.36-1.42.84-1.99,1.46Z"/><path class="uuid-e75d7618-83bf-495f-a7c1-69ae2cdc3f47" d="m1313.62,739.61c-.33.07-2.95.62-4.6,2.23-.1-1.01-.14-2.89.67-4.09,1.16-1.72,4.24-2.32,4.24-2.32,0,0,.46,2.43-.25,4.18h-.06Z"/><path class="uuid-e75d7618-83bf-495f-a7c1-69ae2cdc3f47" d="m1313.62,745.36c-.33.07-2.95.62-4.6,2.23-.1-1.01-.14-2.89.67-4.09,1.16-1.72,4.24-2.32,4.24-2.32,0,0,.46,2.43-.25,4.18h-.06Z"/><path class="uuid-e75d7618-83bf-495f-a7c1-69ae2cdc3f47" d="m1313.35,751.72c-1.16,1.72-4.24,2.32-4.24,2.32,0,0-.59-3.08.57-4.8,1.16-1.72,4.24-2.32,4.24-2.32,0,0,.59,3.08-.57,4.8Z"/><path class="uuid-e75d7618-83bf-495f-a7c1-69ae2cdc3f47" d="m1331.9,739.61h-.06c-.71-1.76-.25-4.19-.25-4.19,0,0,3.07.6,4.24,2.32.81,1.21.77,3.08.67,4.09-1.65-1.61-4.27-2.16-4.6-2.23Z"/><path class="uuid-e75d7618-83bf-495f-a7c1-69ae2cdc3f47" d="m1331.9,745.36h-.06c-.71-1.76-.25-4.19-.25-4.19,0,0,3.07.6,4.24,2.32.81,1.21.77,3.08.67,4.09-1.65-1.61-4.27-2.16-4.6-2.23Z"/><path class="uuid-e75d7618-83bf-495f-a7c1-69ae2cdc3f47" d="m1332.17,751.72c1.16,1.72,4.24,2.32,4.24,2.32,0,0,.59-3.08-.57-4.8-1.16-1.72-4.24-2.32-4.24-2.32,0,0-.59,3.08.57,4.8Z"/><path class="uuid-e75d7618-83bf-495f-a7c1-69ae2cdc3f47" d="m1336.71,755.6c.32,0,.6-.03.79-.06v4.46h-1.59v-4.46c.19.03.47.06.79.06Z"/><path class="uuid-e75d7618-83bf-495f-a7c1-69ae2cdc3f47" d="m1336.71,736.32c-.57-.62-1.28-1.1-1.99-1.46.66-1.6,1.99-2.94,1.99-2.94,0,0,1.33,1.34,1.99,2.94-.71.36-1.42.84-1.99,1.46Z"/><path class="uuid-e75d7618-83bf-495f-a7c1-69ae2cdc3f47" d="m1341.52,739.61c-.33.07-2.95.62-4.6,2.23-.1-1.01-.14-2.89.67-4.09,1.16-1.72,4.24-2.32,4.24-2.32,0,0,.46,2.43-.25,4.18h-.06Z"/><path class="uuid-e75d7618-83bf-495f-a7c1-69ae2cdc3f47" d="m1341.52,745.36c-.33.07-2.95.62-4.6,2.23-.1-1.01-.14-2.89.67-4.09,1.16-1.72,4.24-2.32,4.24-2.32,0,0,.46,2.43-.25,4.18h-.06Z"/><path class="uuid-e75d7618-83bf-495f-a7c1-69ae2cdc3f47" d="m1341.25,751.72c-1.16,1.72-4.24,2.32-4.24,2.32,0,0-.59-3.08.57-4.8,1.16-1.72,4.24-2.32,4.24-2.32,0,0,.59,3.08-.57,4.8Z"/><path class="uuid-e75d7618-83bf-495f-a7c1-69ae2cdc3f47" d="m1274.99,747.11c1.29,2.66,4.71,3.6,4.71,3.6,0,0,.65-4.77-.64-7.43-1.29-2.66-4.71-3.6-4.71-3.6,0,0-.65,4.77.64,7.43Z"/><path class="uuid-e75d7618-83bf-495f-a7c1-69ae2cdc3f47" d="m1280.29,741.04c-.12-1.48-.24-4.63.72-6.61,1.29-2.66,4.71-3.6,4.71-3.6,0,0,.54,3.96-.34,6.68-.48.13-3.35,1.03-5.09,3.52Z"/><path class="uuid-e75d7618-83bf-495f-a7c1-69ae2cdc3f47" d="m1285.08,747.11c-1.29,2.66-4.71,3.6-4.71,3.6,0,0-.65-4.77.64-7.43,1.29-2.66,4.71-3.6,4.71-3.6,0,0,.65,4.77-.64,7.43Z"/><path class="uuid-e75d7618-83bf-495f-a7c1-69ae2cdc3f47" d="m1280.04,723.75c-.64-1.05-1.49-1.84-2.32-2.43.5-2.76,2.32-5.31,2.32-5.31,0,0,1.82,2.55,2.32,5.31-.83.59-1.68,1.38-2.32,2.43Z"/><path class="uuid-e75d7618-83bf-495f-a7c1-69ae2cdc3f47" d="m1274.69,728.68c-.88-2.72-.34-6.68-.34-6.68,0,0,3.42.93,4.71,3.6.96,1.98.85,5.12.72,6.6-1.73-2.48-4.59-3.38-5.09-3.52Z"/><path class="uuid-e75d7618-83bf-495f-a7c1-69ae2cdc3f47" d="m1274.69,737.52c-.88-2.72-.34-6.68-.34-6.68,0,0,3.42.93,4.71,3.6.96,1.98.85,5.13.72,6.61-1.74-2.49-4.61-3.39-5.09-3.52Z"/><path class="uuid-e75d7618-83bf-495f-a7c1-69ae2cdc3f47" d="m1280.04,752.93c.29,0,.6-.06.79-.11v7.18h-1.59v-7.18c.2.05.51.11.79.11Z"/><path class="uuid-e75d7618-83bf-495f-a7c1-69ae2cdc3f47" d="m1280.29,732.2c-.12-1.48-.24-4.62.72-6.6,1.29-2.66,4.71-3.6,4.71-3.6,0,0,.54,3.96-.34,6.68-.49.14-3.36,1.04-5.09,3.52Z"/><path class="uuid-e75d7618-83bf-495f-a7c1-69ae2cdc3f47" d="m1261.27,731.62l-.06-.02c-.71-2.44-.25-5.81-.25-5.81,0,0,3.07.84,4.24,3.24.81,1.68.77,4.29.67,5.7-1.65-2.24-4.27-3.01-4.6-3.1Z"/><path class="uuid-e75d7618-83bf-495f-a7c1-69ae2cdc3f47" d="m1261.27,739.62l-.06-.02c-.71-2.44-.25-5.81-.25-5.81,0,0,3.07.84,4.24,3.24.81,1.68.77,4.29.67,5.7-1.65-2.24-4.27-3.01-4.6-3.1Z"/><path class="uuid-e75d7618-83bf-495f-a7c1-69ae2cdc3f47" d="m1261.54,748.47c1.16,2.4,4.24,3.24,4.24,3.24,0,0,.59-4.29-.57-6.68-1.16-2.4-4.24-3.24-4.24-3.24,0,0-.59,4.29.57,6.68Z"/><path class="uuid-e75d7618-83bf-495f-a7c1-69ae2cdc3f47" d="m1266.08,753.87c.32,0,.6-.04.79-.08v6.2h-1.59v-6.2c.19.04.47.08.79.08Z"/><path class="uuid-e75d7618-83bf-495f-a7c1-69ae2cdc3f47" d="m1266.08,727.04c-.57-.87-1.28-1.53-1.99-2.03.66-2.23,1.99-4.1,1.99-4.1,0,0,1.33,1.86,1.99,4.1-.71.5-1.42,1.17-1.99,2.03Z"/><path class="uuid-e75d7618-83bf-495f-a7c1-69ae2cdc3f47" d="m1270.89,731.62c-.33.09-2.95.87-4.6,3.1-.1-1.41-.14-4.02.67-5.7,1.16-2.4,4.24-3.24,4.24-3.24,0,0,.46,3.38-.25,5.81l-.06.02Z"/><path class="uuid-e75d7618-83bf-495f-a7c1-69ae2cdc3f47" d="m1270.89,739.62c-.33.09-2.95.87-4.6,3.1-.1-1.41-.14-4.02.67-5.7,1.16-2.4,4.24-3.24,4.24-3.24,0,0,.46,3.38-.25,5.81l-.06.02Z"/><path class="uuid-e75d7618-83bf-495f-a7c1-69ae2cdc3f47" d="m1270.63,748.47c-1.16,2.4-4.24,3.24-4.24,3.24,0,0-.59-4.29.57-6.68,1.16-2.4,4.24-3.24,4.24-3.24,0,0,.59,4.29-.57,6.68Z"/><path class="uuid-e75d7618-83bf-495f-a7c1-69ae2cdc3f47" d="m1289.18,731.62l-.06-.02c-.71-2.44-.25-5.81-.25-5.81,0,0,3.07.84,4.24,3.24.81,1.68.77,4.29.67,5.7-1.65-2.24-4.27-3.01-4.6-3.1Z"/><path class="uuid-e75d7618-83bf-495f-a7c1-69ae2cdc3f47" d="m1289.18,739.62l-.06-.02c-.71-2.44-.25-5.81-.25-5.81,0,0,3.07.84,4.24,3.24.81,1.68.77,4.29.67,5.7-1.65-2.24-4.27-3.01-4.6-3.1Z"/><path class="uuid-e75d7618-83bf-495f-a7c1-69ae2cdc3f47" d="m1289.45,748.47c1.16,2.4,4.24,3.24,4.24,3.24,0,0,.59-4.29-.57-6.68-1.16-2.4-4.24-3.24-4.24-3.24,0,0-.59,4.29.57,6.68Z"/><path class="uuid-e75d7618-83bf-495f-a7c1-69ae2cdc3f47" d="m1293.99,753.87c.32,0,.6-.04.79-.08v6.2h-1.59v-6.2c.19.04.47.08.79.08Z"/><path class="uuid-e75d7618-83bf-495f-a7c1-69ae2cdc3f47" d="m1293.99,727.04c-.57-.87-1.28-1.53-1.99-2.03.66-2.23,1.99-4.1,1.99-4.1,0,0,1.33,1.86,1.99,4.1-.71.5-1.42,1.17-1.99,2.03Z"/><path class="uuid-e75d7618-83bf-495f-a7c1-69ae2cdc3f47" d="m1298.8,731.62c-.33.09-2.95.87-4.6,3.1-.1-1.41-.14-4.02.67-5.7,1.16-2.4,4.24-3.24,4.24-3.24,0,0,.46,3.38-.25,5.81l-.06.02Z"/><path class="uuid-e75d7618-83bf-495f-a7c1-69ae2cdc3f47" d="m1298.8,739.62c-.33.09-2.95.87-4.6,3.1-.1-1.41-.14-4.02.67-5.7,1.16-2.4,4.24-3.24,4.24-3.24,0,0,.46,3.38-.25,5.81l-.06.02Z"/><path class="uuid-e75d7618-83bf-495f-a7c1-69ae2cdc3f47" d="m1298.53,748.47c-1.16,2.4-4.24,3.24-4.24,3.24,0,0-.59-4.29.57-6.68,1.16-2.4,4.24-3.24,4.24-3.24,0,0,.59,4.29-.57,6.68Z"/><path class="uuid-e75d7618-83bf-495f-a7c1-69ae2cdc3f47" d="m1229.17,748.05c1.29,2.21,4.71,2.99,4.71,2.99,0,0,.65-3.96-.64-6.17-1.29-2.21-4.71-2.99-4.71-2.99,0,0-.65,3.96.64,6.17Z"/><path class="uuid-e75d7618-83bf-495f-a7c1-69ae2cdc3f47" d="m1234.48,743.01c-.12-1.23-.24-3.84.72-5.49,1.29-2.21,4.71-2.99,4.71-2.99,0,0,.54,3.29-.34,5.55-.48.11-3.35.86-5.09,2.93Z"/><path class="uuid-e75d7618-83bf-495f-a7c1-69ae2cdc3f47" d="m1239.27,748.05c-1.29,2.21-4.71,2.99-4.71,2.99,0,0-.65-3.96.64-6.17,1.29-2.21,4.71-2.99,4.71-2.99,0,0,.65,3.96-.64,6.17Z"/><path class="uuid-e75d7618-83bf-495f-a7c1-69ae2cdc3f47" d="m1234.22,728.63c-.64-.87-1.49-1.53-2.32-2.02.5-2.29,2.32-4.42,2.32-4.42,0,0,1.82,2.12,2.32,4.42-.83.49-1.68,1.15-2.32,2.02Z"/><path class="uuid-e75d7618-83bf-495f-a7c1-69ae2cdc3f47" d="m1228.88,732.74c-.88-2.26-.34-5.55-.34-5.55,0,0,3.42.78,4.71,2.99.96,1.64.85,4.25.72,5.49-1.73-2.06-4.59-2.81-5.09-2.92Z"/><path class="uuid-e75d7618-83bf-495f-a7c1-69ae2cdc3f47" d="m1228.88,740.08c-.88-2.26-.34-5.55-.34-5.55,0,0,3.42.78,4.71,2.99.96,1.65.85,4.26.72,5.49-1.74-2.07-4.61-2.81-5.09-2.93Z"/><path class="uuid-e75d7618-83bf-495f-a7c1-69ae2cdc3f47" d="m1234.22,752.89c.29,0,.6-.05.79-.09v5.97h-1.59v-5.97c.2.04.51.09.79.09Z"/><path class="uuid-e75d7618-83bf-495f-a7c1-69ae2cdc3f47" d="m1234.47,735.66c-.12-1.23-.24-3.84.72-5.49,1.29-2.21,4.71-2.99,4.71-2.99,0,0,.54,3.29-.34,5.55-.49.12-3.36.86-5.09,2.92Z"/><path class="uuid-e75d7618-83bf-495f-a7c1-69ae2cdc3f47" d="m1215.45,735.18h-.06c-.71-2.04-.25-4.84-.25-4.84,0,0,3.07.7,4.24,2.69.81,1.4.77,3.56.67,4.73-1.65-1.86-4.27-2.5-4.6-2.58Z"/><path class="uuid-e75d7618-83bf-495f-a7c1-69ae2cdc3f47" d="m1215.45,741.82h-.06c-.71-2.04-.25-4.84-.25-4.84,0,0,3.07.7,4.24,2.69.81,1.4.77,3.56.67,4.73-1.65-1.86-4.27-2.5-4.6-2.58Z"/><path class="uuid-e75d7618-83bf-495f-a7c1-69ae2cdc3f47" d="m1215.72,749.18c1.16,1.99,4.24,2.69,4.24,2.69,0,0,.59-3.56-.57-5.56-1.16-1.99-4.24-2.69-4.24-2.69,0,0-.59,3.56.57,5.56Z"/><path class="uuid-e75d7618-83bf-495f-a7c1-69ae2cdc3f47" d="m1220.27,753.67c.32,0,.6-.03.79-.06v5.16h-1.59v-5.16c.19.03.47.06.79.06Z"/><path class="uuid-e75d7618-83bf-495f-a7c1-69ae2cdc3f47" d="m1220.27,731.37c-.57-.72-1.28-1.27-1.99-1.69.66-1.86,1.99-3.4,1.99-3.4,0,0,1.33,1.55,1.99,3.4-.71.42-1.42.97-1.99,1.69Z"/><path class="uuid-e75d7618-83bf-495f-a7c1-69ae2cdc3f47" d="m1225.08,735.18c-.33.08-2.95.72-4.6,2.58-.1-1.17-.14-3.34.67-4.73,1.16-1.99,4.24-2.69,4.24-2.69,0,0,.46,2.81-.25,4.83h-.06Z"/><path class="uuid-e75d7618-83bf-495f-a7c1-69ae2cdc3f47" d="m1225.08,741.82c-.33.08-2.95.72-4.6,2.58-.1-1.17-.14-3.34.67-4.73,1.16-1.99,4.24-2.69,4.24-2.69,0,0,.46,2.81-.25,4.83h-.06Z"/><path class="uuid-e75d7618-83bf-495f-a7c1-69ae2cdc3f47" d="m1224.81,749.18c-1.16,1.99-4.24,2.69-4.24,2.69,0,0-.59-3.56.57-5.56,1.16-1.99,4.24-2.69,4.24-2.69,0,0,.59,3.56-.57,5.56Z"/><path class="uuid-e75d7618-83bf-495f-a7c1-69ae2cdc3f47" d="m1243.36,735.18h-.06c-.71-2.04-.25-4.84-.25-4.84,0,0,3.07.7,4.24,2.69.81,1.4.77,3.56.67,4.73-1.65-1.86-4.27-2.5-4.6-2.58Z"/><path class="uuid-e75d7618-83bf-495f-a7c1-69ae2cdc3f47" d="m1243.36,741.82h-.06c-.71-2.04-.25-4.84-.25-4.84,0,0,3.07.7,4.24,2.69.81,1.4.77,3.56.67,4.73-1.65-1.86-4.27-2.5-4.6-2.58Z"/><path class="uuid-e75d7618-83bf-495f-a7c1-69ae2cdc3f47" d="m1243.63,749.18c1.16,1.99,4.24,2.69,4.24,2.69,0,0,.59-3.56-.57-5.56-1.16-1.99-4.24-2.69-4.24-2.69,0,0-.59,3.56.57,5.56Z"/><path class="uuid-e75d7618-83bf-495f-a7c1-69ae2cdc3f47" d="m1248.17,753.67c.32,0,.6-.03.79-.06v5.16h-1.59v-5.16c.19.03.47.06.79.06Z"/><path class="uuid-e75d7618-83bf-495f-a7c1-69ae2cdc3f47" d="m1248.17,731.37c-.57-.72-1.28-1.27-1.99-1.69.66-1.86,1.99-3.4,1.99-3.4,0,0,1.33,1.55,1.99,3.4-.71.42-1.42.97-1.99,1.69Z"/><path class="uuid-e75d7618-83bf-495f-a7c1-69ae2cdc3f47" d="m1252.99,735.18c-.33.08-2.95.72-4.6,2.58-.1-1.17-.14-3.34.67-4.73,1.16-1.99,4.24-2.69,4.24-2.69,0,0,.46,2.81-.25,4.83h-.06Z"/><path class="uuid-e75d7618-83bf-495f-a7c1-69ae2cdc3f47" d="m1252.99,741.82c-.33.08-2.95.72-4.6,2.58-.1-1.17-.14-3.34.67-4.73,1.16-1.99,4.24-2.69,4.24-2.69,0,0,.46,2.81-.25,4.83h-.06Z"/><path class="uuid-e75d7618-83bf-495f-a7c1-69ae2cdc3f47" d="m1252.72,749.18c-1.16,1.99-4.24,2.69-4.24,2.69,0,0-.59-3.56.57-5.56,1.16-1.99,4.24-2.69,4.24-2.69,0,0,.59,3.56-.57,5.56Z"/><polygon class="uuid-db6a064a-ee08-46dd-8b13-45b96366b1e6" points="236.18 692.99 236.36 732.81 252.91 728.21 253.95 677.97 236.18 692.99"/><polygon class="uuid-68050312-5ac4-420d-b041-39f8d89c14af" points="220.85 691.92 236.18 692.99 236.36 732.81 221.11 728.98 220.85 691.92"/><polygon class="uuid-af189c3f-03f9-479f-9e64-a8ee0632044b" points="258.09 675.83 235.41 696.67 217.48 692.84 238.32 672.76 258.09 675.83"/><polygon class="uuid-f56a601e-9261-4870-9d26-f1537059be24" points="243.8 702.8 243.49 709.23 245.71 709 245.94 701.03 243.8 702.8"/><polygon class="uuid-db6a064a-ee08-46dd-8b13-45b96366b1e6" points="268.68 633.58 268.99 731.95 285.84 730.11 286.46 653.5 268.68 633.58"/><polygon class="uuid-68050312-5ac4-420d-b041-39f8d89c14af" points="254.58 634.65 268.68 633.58 268.99 731.95 251.21 727.82 254.58 634.65"/><polygon class="uuid-af189c3f-03f9-479f-9e64-a8ee0632044b" points="250.37 630.28 272.28 627.06 291.67 653.65 286.99 655.57 286.46 653.5 268.68 633.58 254.58 634.65 250.37 630.28"/><polygon class="uuid-f56a601e-9261-4870-9d26-f1537059be24" points="276.95 657.1 276.8 666.29 279.56 665.98 279.41 657.79 276.95 657.1"/><polygon class="uuid-f56a601e-9261-4870-9d26-f1537059be24" points="259.72 644.46 260.02 652.88 262.55 652.96 262.32 644.11 259.72 644.46"/><polygon class="uuid-f56a601e-9261-4870-9d26-f1537059be24" points="258.3 682.34 258.45 689.77 260.6 690.16 260.9 682.65 258.3 682.34"/><polygon class="uuid-db6a064a-ee08-46dd-8b13-45b96366b1e6" points="26.68 692.35 26.76 709.81 34.01 707.79 34.47 685.77 26.68 692.35"/><polygon class="uuid-68050312-5ac4-420d-b041-39f8d89c14af" points="19.96 691.88 26.68 692.35 26.76 709.81 20.07 708.13 19.96 691.88"/><polygon class="uuid-af189c3f-03f9-479f-9e64-a8ee0632044b" points="36.28 684.83 26.34 693.97 18.48 692.29 27.62 683.49 36.28 684.83"/><polygon class="uuid-f56a601e-9261-4870-9d26-f1537059be24" points="30.02 696.65 29.88 699.47 30.86 699.37 30.96 695.88 30.02 696.65"/><polygon class="uuid-db6a064a-ee08-46dd-8b13-45b96366b1e6" points="40.92 666.31 41.06 709.43 48.45 708.63 48.72 675.04 40.92 666.31"/><polygon class="uuid-68050312-5ac4-420d-b041-39f8d89c14af" points="34.75 666.78 40.92 666.31 41.06 709.43 33.27 707.62 34.75 666.78"/><polygon class="uuid-af189c3f-03f9-479f-9e64-a8ee0632044b" points="32.9 664.87 42.5 663.46 51 675.11 48.95 675.95 48.72 675.04 40.92 666.31 34.75 666.78 32.9 664.87"/><polygon class="uuid-f56a601e-9261-4870-9d26-f1537059be24" points="44.55 676.62 44.48 680.65 45.69 680.52 45.63 676.92 44.55 676.62"/><polygon class="uuid-f56a601e-9261-4870-9d26-f1537059be24" points="37 671.08 37.13 674.77 38.24 674.81 38.14 670.93 37 671.08"/><polygon class="uuid-f56a601e-9261-4870-9d26-f1537059be24" points="36.37 687.69 36.44 690.94 37.38 691.11 37.52 687.82 36.37 687.69"/><polygon class="uuid-db6a064a-ee08-46dd-8b13-45b96366b1e6" points="331.84 754.24 311.11 757.25 311.64 664.67 331.22 666.37 331.84 754.24"/><polygon class="uuid-68050312-5ac4-420d-b041-39f8d89c14af" points="293.76 675.46 311.64 664.67 311.11 757.25 293.14 753.32 293.76 675.46"/><polygon class="uuid-af189c3f-03f9-479f-9e64-a8ee0632044b" points="288.06 677.31 293.73 679.39 294.15 675.23 311.64 664.67 331.22 666.37 331.25 669.53 338.39 665.67 310.33 661.74 288.06 677.31"/><polygon class="uuid-f56a601e-9261-4870-9d26-f1537059be24" points="315.19 678.35 315.54 686.56 318 686.91 317.77 678.62 315.19 678.35"/><polygon class="uuid-f56a601e-9261-4870-9d26-f1537059be24" points="323.24 678.58 323.48 686.44 325.17 686.56 325.4 678.62 323.24 678.58"/><polygon class="uuid-db6a064a-ee08-46dd-8b13-45b96366b1e6" points="357.52 759.41 399.67 757.33 400.11 714.46 379.32 700.28 330.61 697.35 319.2 715.24 319.51 756.02 357.52 759.41"/><polygon class="uuid-68050312-5ac4-420d-b041-39f8d89c14af" points="356.66 721.4 357.12 759.34 319.98 756.06 319.36 718.03 356.66 721.4"/><polygon class="uuid-af189c3f-03f9-479f-9e64-a8ee0632044b" points="379.32 700.28 356.71 725.88 317.66 721.71 314.88 721.25 331.43 696.35 379.55 697.2 402.24 714.06 400.11 714.46 379.32 700.28"/><polygon class="uuid-f56a601e-9261-4870-9d26-f1537059be24" points="371.27 716.93 371.54 722.56 373.93 721.79 373.73 716.31 371.27 716.93"/><polygon class="uuid-f56a601e-9261-4870-9d26-f1537059be24" points="380.56 715.31 380.36 720.71 383.06 720.63 383.1 715.27 380.56 715.31"/><polygon class="uuid-f56a601e-9261-4870-9d26-f1537059be24" points="392.2 715.23 392.43 720.63 394.43 720.52 394.05 715.39 392.2 715.23"/><polygon class="uuid-f56a601e-9261-4870-9d26-f1537059be24" points="369.61 744.95 370.07 751.81 372.31 751.73 372.31 745.1 369.61 744.95"/><polygon class="uuid-f56a601e-9261-4870-9d26-f1537059be24" points="385.18 743.25 384.87 748.5 386.95 748.57 386.88 742.95 385.18 743.25"/><polygon class="uuid-db6a064a-ee08-46dd-8b13-45b96366b1e6" points="631.84 754.24 611.11 757.25 611.64 664.67 631.22 666.37 631.84 754.24"/><polygon class="uuid-68050312-5ac4-420d-b041-39f8d89c14af" points="593.76 675.46 611.64 664.67 611.11 757.25 593.14 753.32 593.76 675.46"/><polygon class="uuid-af189c3f-03f9-479f-9e64-a8ee0632044b" points="588.06 677.31 593.73 679.39 594.15 675.23 611.64 664.67 631.22 666.37 631.25 669.53 638.39 665.67 610.33 661.74 588.06 677.31"/><polygon class="uuid-f56a601e-9261-4870-9d26-f1537059be24" points="615.19 678.35 615.54 686.56 618 686.91 617.77 678.62 615.19 678.35"/><polygon class="uuid-f56a601e-9261-4870-9d26-f1537059be24" points="623.24 678.58 623.48 686.44 625.17 686.56 625.4 678.62 623.24 678.58"/><polygon class="uuid-db6a064a-ee08-46dd-8b13-45b96366b1e6" points="657.52 759.41 699.67 757.33 700.11 714.46 679.32 700.28 630.61 697.35 619.2 715.24 619.51 756.02 657.52 759.41"/><polygon class="uuid-68050312-5ac4-420d-b041-39f8d89c14af" points="656.66 721.4 657.12 759.34 619.98 756.06 619.36 718.03 656.66 721.4"/><polygon class="uuid-af189c3f-03f9-479f-9e64-a8ee0632044b" points="679.32 700.28 656.71 725.88 617.66 721.71 614.88 721.25 631.43 696.35 679.55 697.2 702.24 714.06 700.11 714.46 679.32 700.28"/><polygon class="uuid-f56a601e-9261-4870-9d26-f1537059be24" points="671.27 716.93 671.54 722.56 673.93 721.79 673.73 716.31 671.27 716.93"/><polygon class="uuid-f56a601e-9261-4870-9d26-f1537059be24" points="680.56 715.31 680.36 720.71 683.06 720.63 683.1 715.27 680.56 715.31"/><polygon class="uuid-f56a601e-9261-4870-9d26-f1537059be24" points="692.2 715.23 692.43 720.63 694.43 720.52 694.05 715.39 692.2 715.23"/><polygon class="uuid-f56a601e-9261-4870-9d26-f1537059be24" points="669.61 744.95 670.07 751.81 672.31 751.73 672.31 745.1 669.61 744.95"/><polygon class="uuid-f56a601e-9261-4870-9d26-f1537059be24" points="685.18 743.25 684.87 748.5 686.95 748.57 686.88 742.95 685.18 743.25"/><polygon class="uuid-68050312-5ac4-420d-b041-39f8d89c14af" points="513.68 688.74 513.7 758.75 496.6 757.93 497.4 690.24 513.68 688.74"/><path class="uuid-db6a064a-ee08-46dd-8b13-45b96366b1e6" d="m596.17,691.08c-.61,1.24,1.35,67.36,1.35,67.36l-83.87.31-.54-67.79,83.06.12Z"/><polygon class="uuid-af189c3f-03f9-479f-9e64-a8ee0632044b" points="494.25 692.3 513.7 692.61 598.63 692.82 575.82 676.72 510.87 676.72 494.25 692.3"/><path class="uuid-f56a601e-9261-4870-9d26-f1537059be24" d="m528.77,704.73c-.16.31-.1,9.18-.1,9.18l2.94-.05-.57-8.87-2.27-.26Z"/><polygon class="uuid-f56a601e-9261-4870-9d26-f1537059be24" points="549.51 704.94 549.82 712.94 552.09 712.99 551.99 705.35 549.51 704.94"/><polygon class="uuid-db6a064a-ee08-46dd-8b13-45b96366b1e6" points="571.75 730.99 570.64 760.81 602.23 759.52 601.99 730.34 571.75 730.99"/><polygon class="uuid-68050312-5ac4-420d-b041-39f8d89c14af" points="530.17 731.82 529.69 758.91 570.64 760.81 572.16 731.74 530.17 731.82"/><polygon class="uuid-af189c3f-03f9-479f-9e64-a8ee0632044b" points="604.04 731.3 583.41 720.98 538.83 721.81 529.54 732.33 604.04 731.3"/><path class="uuid-f56a601e-9261-4870-9d26-f1537059be24" d="m537.11,745.43c2.76-.29,5,2.49,5,6.21v7.83s-10.04-.47-10.04-.47c-.03-.31.04-7.95.39-9.36.35-1.41,1.88-3.92,4.64-4.21Z"/><path class="uuid-f56a601e-9261-4870-9d26-f1537059be24" d="m549.54,746.02c2.76-.29,5,2.49,5,6.21v7.83s-10.04-.47-10.04-.47c-.03-.31.04-7.95.39-9.36s1.88-3.92,4.64-4.21Z"/><path class="uuid-f56a601e-9261-4870-9d26-f1537059be24" d="m561.92,746.56c2.76-.29,5,2.49,5,6.21v7.83s-10.04-.47-10.04-.47c-.03-.31.04-7.95.39-9.36.35-1.41,1.88-3.92,4.64-4.21Z"/><polygon class="uuid-68050312-5ac4-420d-b041-39f8d89c14af" points="751.85 715.62 752.61 674.82 818.32 674.57 872.87 675.38 882.04 675.56 882.19 705.69 882.65 724.79 752 726.63 751.85 715.62"/><polygon class="uuid-60ba165a-025d-4036-bdd0-5d4f7cbbd1b2" points="780.21 715.62 780.81 674.82 832.27 674.57 874.99 675.38 882.17 675.56 882.29 705.69 882.65 724.79 780.33 726.63 780.21 715.62"/><polygon class="uuid-af189c3f-03f9-479f-9e64-a8ee0632044b" points="750.84 675.24 830.7 675.46 883.42 676.53 863.02 666.71 783.05 665.68 750.84 675.24"/><polygon class="uuid-af189c3f-03f9-479f-9e64-a8ee0632044b" points="723.43 712.57 752.1 701.87 800.44 701.87 882.17 701.48 902.51 710.12 885.86 710.28 836.81 710.12 776.87 711.31 723.43 712.57"/><polygon class="uuid-60ba165a-025d-4036-bdd0-5d4f7cbbd1b2" points="726.63 754.9 725.4 712.47 799.98 710.03 899.91 710.15 900.37 740.68 899.91 753.06 844.7 753.38 791.83 753.68 726.63 754.9"/><polygon class="uuid-db6a064a-ee08-46dd-8b13-45b96366b1e6" points="806.4 626.23 805.17 759.17 827.02 758.1 824.58 706.15 824.88 653.58 824.27 635.1 806.4 626.23"/><polygon class="uuid-68050312-5ac4-420d-b041-39f8d89c14af" points="793.1 632.65 798.15 629.75 806.4 626.23 805.62 710.74 805.17 759.17 791.73 757.49 793.26 699.73 793.1 632.65"/><path class="uuid-f56a601e-9261-4870-9d26-f1537059be24" d="m763.21,688.91h0c.67,0,1.22.55,1.22,1.22v11.73h-2.45v-11.73c0-.67.55-1.22,1.22-1.22Z"/><rect class="uuid-ea62813c-0ef0-4259-a9b1-b82221b1e308" x="829.49" y="682.46" width="1.53" height="7.56"/><rect class="uuid-ea62813c-0ef0-4259-a9b1-b82221b1e308" x="839.42" y="681.55" width="1.76" height="7.03"/><rect class="uuid-ea62813c-0ef0-4259-a9b1-b82221b1e308" x="848.89" y="681.55" width="1.76" height="7.03"/><rect class="uuid-ea62813c-0ef0-4259-a9b1-b82221b1e308" x="861.12" y="681.55" width="1.76" height="7.03"/><rect class="uuid-ea62813c-0ef0-4259-a9b1-b82221b1e308" x="870.7" y="681.55" width="1.76" height="7.03"/><path class="uuid-f56a601e-9261-4870-9d26-f1537059be24" d="m799.91,640.88c.39-1.04,1.81-1.22,2.51,0v9.95l-2.51.3v-10.25h0Zm-2.64,1.04c.34-.91,1.58-1.07,2.19,0v9.26l-2.19.26v-9.52Z"/><rect class="uuid-ea62813c-0ef0-4259-a9b1-b82221b1e308" x="853.5" y="714.54" width="1.76" height="4.59"/><rect class="uuid-ea62813c-0ef0-4259-a9b1-b82221b1e308" x="871.65" y="714.54" width="1.76" height="4.59"/><rect class="uuid-ea62813c-0ef0-4259-a9b1-b82221b1e308" x="886.5" y="714.54" width="1.76" height="4.59"/><path class="uuid-f56a601e-9261-4870-9d26-f1537059be24" d="m854.38,734.2h0c.48,0,.88.4.88.88v7.22h-1.76v-7.22c0-.48.4-.88.88-.88Z"/><path class="uuid-f56a601e-9261-4870-9d26-f1537059be24" d="m871.96,734.2h0c.48,0,.88.4.88.88v7.22h-1.76v-7.22c0-.48.4-.88.88-.88Z"/><path class="uuid-f56a601e-9261-4870-9d26-f1537059be24" d="m888.78,734.2h0c.48,0,.88.4.88.88v7.22h-1.76v-7.22c0-.48.4-.88.88-.88Z"/><path class="uuid-f56a601e-9261-4870-9d26-f1537059be24" d="m733.49,714.73h0c.34,0,.62.28.62.62v5.08h-1.24v-5.08c0-.34.28-.62.62-.62Z"/><path class="uuid-f56a601e-9261-4870-9d26-f1537059be24" d="m747.15,713.96h0c.34,0,.62.28.62.62v5.08h-1.24v-5.08c0-.34.28-.62.62-.62Z"/><path class="uuid-f56a601e-9261-4870-9d26-f1537059be24" d="m763.86,713.58h0c.34,0,.62.28.62.62v5.08h-1.24v-5.08c0-.34.28-.62.62-.62Z"/><polygon class="uuid-af189c3f-03f9-479f-9e64-a8ee0632044b" points="720.13 735.32 742.09 734.94 734.64 731.31 720.13 735.32"/><polygon class="uuid-68050312-5ac4-420d-b041-39f8d89c14af" points="721.75 756.98 741.24 756.45 741.09 734.96 722.23 735.32 721.75 756.98"/><polygon class="uuid-68050312-5ac4-420d-b041-39f8d89c14af" points="768.93 757.75 781.78 757.59 781.68 736.09 769.24 736.09 768.93 757.75"/><polygon class="uuid-af189c3f-03f9-479f-9e64-a8ee0632044b" points="783.4 736.2 767.72 736.08 774.84 731.35 783.4 736.2"/><path class="uuid-f56a601e-9261-4870-9d26-f1537059be24" d="m775.27,738.75h0c.28,0,.51.23.51.51v4.2h-1.02v-4.2c0-.28.23-.51.51-.51Z"/><path class="uuid-f56a601e-9261-4870-9d26-f1537059be24" d="m729.63,737.41h0c.28,0,.51.23.51.51v4.2h-1.02v-4.2c0-.28.23-.51.51-.51Z"/><polygon class="uuid-6dd669c0-ad2f-4ba3-82fb-5129efef066d" points="783.05 665.68 792.09 675.35 750.84 675.24 783.05 665.68"/><polygon class="uuid-6dd669c0-ad2f-4ba3-82fb-5129efef066d" points="752.1 701.87 756.98 701.87 748.28 711.8 723.43 712.57 752.1 701.87"/><polygon class="uuid-cc533c91-6271-4e4f-83f7-093941333021" points="783.05 665.68 792.09 675.35 779.06 675.32 783.05 665.68"/><polygon class="uuid-cc533c91-6271-4e4f-83f7-093941333021" points="756.98 701.87 748.35 711.72 771.56 710.96 761.32 701.87 756.98 701.87"/><path class="uuid-f56a601e-9261-4870-9d26-f1537059be24" d="m797.35,686.83h0c.43,0,.78.35.78.78v7.5h-1.56v-7.5c0-.43.35-.78.78-.78Z"/><path class="uuid-f56a601e-9261-4870-9d26-f1537059be24" d="m797.35,716h0c.43,0,.78.35.78.78v7.5h-1.56v-7.5c0-.43.35-.78.78-.78Z"/></g></svg>