<?xml version="1.0" encoding="UTF-8"?><svg id="bonhomme" xmlns="http://www.w3.org/2000/svg" viewBox="0 0 1366 768"><defs><style>.cls-1{fill:#fff;}.cls-2,.cls-3,.cls-4,.cls-5,.cls-6,.cls-7,.cls-8,.cls-9,.cls-10,.cls-11,.cls-12{fill:none;stroke-linecap:round;stroke-linejoin:round;}.cls-2,.cls-3,.cls-5,.cls-7,.cls-8,.cls-9,.cls-10,.cls-11,.cls-12{stroke-width:7.2px;}.cls-2,.cls-4{stroke:#8c4337;}.cls-3{stroke:#d5d8eb;}.cls-13{fill:#f7e3be;}.cls-14{fill:#653636;}.cls-4,.cls-6{stroke-width:6.48px;}.cls-15{fill:#8c5959;}.cls-5,.cls-6{stroke:#b4bcd3;}.cls-7{stroke:#ab5547;}.cls-16{fill:#faf1dd;}.cls-17{fill:#cc6c5b;}.cls-18{fill:#f0c780;}.cls-8{stroke:#d57969;}.cls-19{fill:#282c51;}.cls-20{fill:#b2594b;}.cls-9{stroke:#a59b9b;}.cls-21{fill:#583a3a;}.cls-22{fill:#1c2240;}.cls-23{fill:#303762;}.cls-10{stroke:#653636;}.cls-24{fill:#2d335d;}.cls-25{fill:#8c4337;}.cls-11{stroke:#794d4d;}.cls-12{stroke:#f0c780;}.cls-26{fill:#804e4e;}.cls-27{fill:#b6aeae;}.cls-28{fill:#afa7a7;}.cls-29{fill:#ccd3e8;}</style></defs><path class="cls-27" d="m345.09,687.03s-13.1-2.28-13.73-4.84c1.87-3.7,14.66-28.16,17.78-36.41,3.12-8.25,6.55-8.82,9.36-9.39,2.81-.57,17.16-6.26,18.72-7.68,1.56-1.42-2.81-5.12-2.18-7.4.62-2.28,20.9-17.07,24.02-19.91,3.12-2.84,3.74-6.26,7.8-10.24,4.06-3.98,26.83-19.59,55.85-36.98,29.02-17.39,82.06-34.28,94.54-39.19,12.48-4.91,31.82-6.23,44.62-6.85,12.79-.62,47.87-3.65,61.38-3.7,13.51-.05,125.6-7.16,134.77-7.73,9.16-.57,42.23,5.5,45.35,7.73,3.12,2.23,25.27,16.89,35.88,21.79,6.55,7.18,27.77,46.15,31.82,50.13,4.06,3.98,18.1,3.13,20.9,3.98,2.81.85,29.95,49.21,34.32,53.48,4.37,4.27,29.02,9.1,38.69,8.82,9.67-.28,7.49,6.54,19.97,11.66,12.48,5.12,7.18,1.99,13.73,8.25,6.55,6.26,24.65,17.92,29.64,20.2,4.99,2.28-18.72,9.67-37.13,11.95-18.41,2.28-51.48,3.41-61.47,9.39-9.98,5.97-45.87,5.12-48.36,3.41-2.5-1.71-6.24-7.11-6.24-7.11,0,0-29.33-3.98-43.99-1.42-14.66,2.56-56.47,6.02-62.09,4.72-5.62-1.3-33.7.73-37.13,0-3.43-.73-5.62-6.8-5.62-6.8,0,0-.31,5.26-2.5,6.8-2.18,1.54-18.1,5.81-22.78,8.08s-8.42-.37-15.91-2.75-37.13-8.92-44.62-8.63c-7.49.28-29.02-1.99-37.44,0-8.42,1.99-28.7,4.31-37.75,3.3-9.05-1.02-2.5-5-3.74-9.27-1.25-4.27-18.72,4.31-36.19,9.27-17.47,4.95-31.51,2.68-43.99-3.3-12.48-5.97-40.87-13.94-45.24-14.22-4.37-.28-30.26,4.84-38.69,8.82-8.42,3.98-10.92,3.24-16.54,1.9-5.62-1.34-39.63-4.05-52.11-3.97-12.48.08-25.58-.49-23.71-5.9Z"/><path class="cls-28" d="m477.13,676.2s7.61-15.4,9.48-17.87c1.87-2.47,53.15-39.45,60.53-44.66,7.38-5.22,10.61-8.82,11.86-10.81s17.05-35.31,37.18-44.02c0,0-15,12.29-22.67,25.14-7.67,12.85-11.89,20.86-13.09,22.86s-16.81,13.71-20.26,16.32c-3.45,2.62-41.28,30.93-52.4,38.22l-10.62,14.82Z"/><path class="cls-28" d="m527.46,568.41s-2.44,9.63-3.84,15.82c-1.4,6.19-1.33,9.67-1.79,11.38-.47,1.71-25.69,9.6-30.79,18.14,0,0,6.91-4.99,18.7-9.07,11.78-4.08,14.46-4.76,15.58-6.31,1.12-1.55.57-12.5,1.12-18.33.55-5.83,1.04-11.62,1.04-11.62Z"/><path class="cls-28" d="m347.58,683.51s18.86-38.55,20.42-40.4c1.56-1.85,12.95,2.28,15.29,1.99s12.17-8.53,15.91-10.38c3.74-1.85,9.16,1.77,21.51-1.61,0,0-7.5,3.1-13.3,3.46-5.79.35-6.62,1.94-9.9,3.81-3.28,1.87-12.69,7.16-13.79,7.26s-9.56-1.05-12.37-1.12c-1.32,0-2.96,3.27-5.46,8.64,0,0-7.78,12.15-10.8,16.99-3.01,4.84-7.51,11.35-7.51,11.35Z"/><path class="cls-28" d="m434.64,685.45s3.62-13.56,4.76-15.46c1.14-1.9,4.68-2.94,5.93-4.08s13.2-18.65,21.99-24.83c0,0-16.08,18.22-19.45,24.42-1.29,1.92-2.01,2.47-3.87,3.82-1.86,1.35-2.84,1.55-4.24,4.87-1.41,3.32-5.12,11.26-5.12,11.26Z"/><path class="cls-28" d="m439.13,594.17c3.19-2.14,17.33-14.92,17.33-14.92,0,0-16.69,12.16-18.88,14.01-2.18,1.85-6.63,2.7-14.12,8.46-7.49,5.76-19.34,20.13-20.67,19.49-1.33-.64-2.42-1.35-5.93-.85-3.51.5-9.91,2.63-13.96,3.56-4.06.92-4.37.5-5.67-.57-.74-.61-1.45-1.67-1.93-2.47-.13.18-.23.34-.26.45-.62,2.28,3.74,5.97,2.18,7.4,0,0,9.81-3.31,11.93-3.98,2.12-.67,6.05-1.53,8.41-1.62,2.36-.09,5.38.79,6.92-.22,1.54-1.02,16.16-16.41,21.17-21.06,5.01-4.65,10.28-5.52,13.47-7.66Z"/><path class="cls-28" d="m489.86,548.78s1.78.31,3.48,3.92c0,0,4.71,1.8,10.85,1.71,6.14-.09,9.46-.19,10.82,1.33,1.35,1.52,1.35,7.4,3.02,9.48,0,0-.31-4.17.52-5.88.83-1.71,2.4-2.6,2.4-2.6,0,0-3.81-1.66-5.02-2.41-1.2-.75-7.43-2.86-13.44-3.53-6.01-.67-11.82-2.15-12.62-2.02Z"/><path class="cls-28" d="m692.67,579.5s3.93,7.9,4.87,11.6c.94,3.7,3.85,8.72,5.41,9.67,1.56.95,2.08-1.9,4.58-2.66s29.11-13.4,29.11-13.4c0,0-22.11,8.57-26.29,10.65-4.17,2.09-4.73.3-6.06-1.51-1.33-1.81-11.17-14.01-11.61-14.36Z"/><path class="cls-28" d="m861.77,539.56s.52-1.21.52-3.84,9.69-3.71,12.82-6.83c0,0-9.39,3.3-20.86,3.36,0,0,2.18,2.26,4.13,3.83,1.95,1.56,3.38,3.48,3.38,3.48Z"/><path class="cls-28" d="m949.27,618.65c-9.36-5.83-28.57-27.19-28.57-27.19,0,0,19.83,24.86,26.6,31.68,6.77,6.82,19,10.69,19,10.69-1.1-1.08-3.67-4.98-6.92-10.22-3.03-1.16-6.57-2.77-10.1-4.97Z"/><path class="cls-28" d="m761.97,614.15s5.56,15.73,7.64,22.94c2.08,7.21,1.25,8.68-3.95,14.49-5.2,5.81-6.41,10.36-6.53,13.96-.13,3.6,4.88,16.94,4.88,16.94,0,0-2.68-13.81-1.4-18.36,1.28-4.55,6.17-9.77,10.02-12.76,3.85-2.99,3.57-3.48,3.57-4.49,0-1.01-.76-4.83-3-11.29-2.24-6.46-10.05-19.73-11.22-21.43Z"/><path class="cls-28" d="m812.85,566.77s2.11-7.3,4.45-9c2.34-1.71,18.08-6.73,18.08-6.73,0,0-13.1,3.01-20.19,3.02-2.97.3-3.35,1.27-3.36,2.61-.01,1.34,1.02,10.1,1.02,10.1Z"/><path class="cls-28" d="m887.05,603.48s14.54,14.36,21.09,17.97c6.55,3.6,18.82,6.45,21.94,8.44,3.12,1.99,2.18,2.56,2.29,3.51.1.95,8.44,21.13,9.58,23.7,0,0-9.77-13.74-11.57-18.56-1.8-4.82-2.52-5.8-4.77-6.98-2.25-1.18-7.32-3.51-16.38-6.55-7.23-2.42-7.84-4.89-11.6-9.25-3.76-4.36-10.59-12.28-10.59-12.28Z"/><path class="cls-9" d="m476.44,677.36s8.74-14.99,11.86-16.31c3.12-1.33,69.34-50.21,72.11-54.22,2.77-4,16.12-35.39,38.46-49.85"/><path class="cls-9" d="m493.34,541.38s-4.42,6.83-3.48,7.4c.94.57,23.09,2.84,25.9,5.41,2.81,2.56,13.1,4.99,18.41,5.2,5.3.21,14.74.39,21.1,2.43,6.36,2.04,14.16-.52,41.62-7.91"/><path class="cls-9" d="m527.46,568.41s-2.18,25.03-1.79,29.02c.39,3.98-24.52,7.68-35.93,17.35"/><path class="cls-9" d="m434.64,686.18s4.37-10.15,5.62-13.18,6.24-4.46,7.18-6.73,23.3-31.86,36.92-41.53"/><path class="cls-9" d="m377.23,628.72s13.73-4.84,17.16-5.41c3.43-.57,7.49.28,9.36,0,1.87-.28,17.78-18.21,20.59-20.48,2.81-2.28,10.61-7.11,13.1-7.68,2.5-.57,19.97-17.07,24.96-21.05,4.99-3.98,9.36-5.26,14.04-7.32"/><path class="cls-9" d="m347.58,684.32s9.36-15.41,14.66-23.27c5.3-7.87,7.49-13.84,8.42-14.41.94-.57,10.92,1.14,12.48,1.14s14.98-7.68,18.72-9.96c3.74-2.28,9.05.28,20.28-5.41"/><path class="cls-9" d="m603.74,689.56s7.8-37.8,8.42-40.93c.62-3.13,6.24-3.13,8.42-5.12,2.18-1.99,3.03-6.02,3.03-6.02"/><path class="cls-9" d="m692.67,579.5s11.23,13.09,12.79,16.22,17.16-7.4,33.54-11.66"/><path class="cls-9" d="m751.01,582.06s8.32-2.28,11.03-2.56c2.7-.28,13.31-12.37,14.87-12.73,1.56-.36,30.99,1.49,35.31,0,.63-1.21-1.2-10.31,0-11.73,1.2-1.42,8.06-1.08,18.98-3.1,10.92-2.02,24.96-7.49,30.58-12.01,0-2.53-8.11-7.65-8.11-7.65,0,0,16.54-.61,22.78-4"/><path class="cls-9" d="m708.58,604.67s6.71,26.89,7.25,29.17,2.31,2.84,6.89,7.11c4.58,4.27,12.92,14.49,13.27,16.49.36,2,.67,31.92,5.66,46.26"/><path class="cls-9" d="m815.81,572.12s16.32,26.99,22.88,32.55c6.55,5.56,12.48,8.69,17.47,13.81,4.99,5.12,35.88,41.25,42.75,52.34,6.86,11.09,14.66,26.08,14.66,26.08"/><path class="cls-9" d="m765.79,692.93s-4.48-23.05-3.08-29.41,10.48-11.76,13.12-15.46c2.64-3.7-8.9-28.16-16.7-37.84"/><path class="cls-9" d="m861.77,539.93s14.04,14.72,20.28,21.88c6.24,7.16,10.61,15.98,15.91,17.69,5.3,1.71,12.48,0,12.48,0"/><path class="cls-9" d="m919.5,590.03s14.66,17.35,23.4,28.45c8.74,11.09,23.4,15.36,23.4,15.36"/><path class="cls-9" d="m882.06,596.29s16.85,25.88,26.21,28.44c9.36,2.56,21.22,7.89,20.59,9.78-.62,1.89,12.48,23.51,23.09,35.45,10.61,11.95,19.97,6.1,32.45,22.96"/><path class="cls-15" d="m769.04,482.29s-21.91-10.15-46.39-21.31c-24.48-11.16-65.81-27.98-65.81-27.98-2.61-1.39-5.65-2.19-8.89-2.19-9.75,0-17.65,7.21-17.65,16.1,0,4.74,2.24,9,5.82,11.94.77.63,1.59,1.2,2.47,1.7,12.85,8.84,72.59,49.7,102.9,66.19,5.08,4.16,11.79,6.7,19.16,6.7,15.83,0,28.67-11.7,28.67-26.14,0-11.77-8.54-21.72-20.27-25Z"/><path class="cls-29" d="m630.91,438.91s7.55-12.82,23.32-7.81c15.77,5.01,116.97,50.1,116.97,50.1,0,0,28.57,10.89,16.47,38.04-3.45,6.8-18.16,23.02-41.71,11.08-22.51-11.41-108.89-69.19-108.89-69.19,0,0-13.44-9.05-6.17-22.22Z"/><path class="cls-20" d="m679.62,441.24s5.18,8.59-1.85,21.59c-7.04,13.01-15.21,15.17-15.21,15.17,0,0-2.03,4.1,3.04,5.63,0,0,5.9,17.2,35.3,33.25,29.39,16.05,51.45,23.64,62.08,21.95,10.62-1.69,22.8-9.07,28.67-21.57,5.87-12.5,2.29-28.08-15.96-40.94-18.24-12.86-31.93-19.83-50.68-30.98-18.75-11.15-35.32-7.94-39.21-4.52,0,0-3.35-1.99-6.18.43Z"/><path class="cls-2" d="m686.76,443.73c1.58,6.37,2.68,22.24-18.48,37.85"/><path class="cls-7" d="m691.46,445.02s12.35,1.25,23.47,5.86c11.12,4.61,27.34,16.27,34.9,19.42,7.57,3.15,26.86,13.1,30.7,16.52"/><path class="cls-7" d="m691.21,462.55s9.07,8.21,29.38,14.09c38.59,11.17,51.88,18.83,57.4,22.15"/><path class="cls-7" d="m684.38,475.35s9.89,13.69,43.09,23.34c20.04,5.82,36.63,10.47,45.3,15.9"/><path class="cls-7" d="m673.59,482.86s10.62,17.84,29.12,27.51c18.5,9.67,33.13,13.17,42.7,18.46,9.57,5.29,18.97,5.5,24.94,3.25"/><path class="cls-15" d="m665.6,446.89c0-8.89-7.9-16.1-17.65-16.1-4.45,0-8.52,1.5-11.62,3.98,0,0-41.9,29.28-91.05,70.91-2.21,1.34-3.67,3.63-3.67,6.23,0,4.12,3.67,7.47,8.19,7.47,1.9,0,3.65-.59,5.04-1.59,0,0,31.11-13.97,46.93-21.52,15.82-7.55,52.03-31.12,57.01-36.68,4.15-2.95,6.82-7.54,6.82-12.71Z"/><path class="cls-29" d="m660.95,434.57s-10.39-9.1-22.78-3.04c-12.39,6.06-93.99,73.76-93.99,73.76,0,0-6.6,5.27-2.28,10.74,4.32,5.46,10.24,4.02,13.98,2.27,3.74-1.76,34.72-15.93,41.75-19.04,7.03-3.11,25.54-13.51,35.55-19.98,10.01-6.47,22.82-15.2,28.81-21.24,5.99-6.04,7.59-15.33-1.04-23.46Z"/><path class="cls-6" d="m656.91,462.55s-3.89,3.63-8.52,6.11"/><path class="cls-15" d="m554.84,517.8c1.91-1.37,3.15-3.49,3.15-5.88,0-4.12-3.67-7.47-8.19-7.47-1.67,0-3.23.46-4.52,1.24,0,0-11.38,4.53-17.49,7.36-6.11,2.82-26.53,9.61-31.13,12.21-4.6,2.59-3.35,5.49-2.43,6.56.92,1.07,13.14,2.44,21.26,1.53,8.12-.92,14.65-1.91,19.25-1.83,4.6.08,16.15,1.6,19.33-1.07,3.18-2.67,2.59-6.49,1.92-8.39-.67-1.91-1.88-2.7-1.15-4.25Z"/><path class="cls-29" d="m545.81,503.94s-11.02,5.37-16.71,7.65c-5.69,2.28-17.08,7.04-23.24,9.25-6.16,2.2-13.32,4.36-13.52,9.65,0,1.8,2.91,3.23,10.17,3.58,7.25.36,18.1.37,24.02-1.07,5.92-1.44,13.49-.7,17.32-.39,3.82.31,10.05,0,11.86-1.69,1.81-1.69,1.4-7.67.7-9.59-.7-1.92-.1-3.01,1.14-3.81,2.47-1.6,4.79-6.65.45-11.13-4.2-4.33-7.91-4.34-12.18-2.45Z"/><path class="cls-21" d="m484.86,532.61s.95,3.43,2.04,3.75,30.11,2.04,32.45,1.96,3.9-1.95,6.71-2.86c2.81-.91,9.91-.63,9.91-.63v-2.23h-51.1Z"/><path class="cls-21" d="m535.96,533.99v3.98s11.86,2.49,21.29,0v-4.32l-21.29.34Z"/><path class="cls-15" d="m520.91,511.58s5.69,2.35,6.55,8.75c0,0,9.83-.79,15.91-1.28,6.08-.49,13.99-1.41,13.99-1.41,0,0-.73,2.91-.11,5.75.62,2.84,0,10.26,0,10.26,0,0-11.62,1.27-21.29.34-3.28-.34-9.28-.57-12.01.71-2.73,1.28-3.51,1.56-6.32,1.56s-26.99-1.28-30.42-1.92c-3.43-.64-2.89-4.55-2.73-7.18.23-.36.31-1.21,7.1-3.24,6.79-2.03,23.32-7.36,29.33-12.34Z"/><path class="cls-11" d="m517.79,524.32s6.94-1.42,9.67-3.98"/><path class="cls-11" d="m485.73,527.3s1.33,2.28,3.35,2.7c2.03.43,21.06,2.92,36.9,1.28"/><path class="cls-11" d="m534.17,530.5s14.11,1.56,21.1-1.35"/><path class="cls-15" d="m722.72,451.31s1.85,9.8,3.38,22.52c1.81,15.07,3.79,34.14,10.62,44.61,4.34,6.65,17.94,16.16,35.19,15.13,26.51-1.58,38.09-15.92,40.11-28.75,1.32-8.39-4.12-29.99-6.38-38.57-2.26-8.58-2.7-23.35-2.7-23.35,0,0-68.73,0-80.22,8.41Z"/><path class="cls-20" d="m724.01,458.88s-.67,11.38-1.29,17.64c-.62,6.26-2.88,63.02,50.05,58.06,14.44-.94,42.38-6.57,44.43-30.23-2.93-27.83-10.14-35.3-13.3-48.38,0,0-45.31,5.36-79.88,2.9Z"/><path class="cls-2" d="m722.72,477.26s-1.19,9.07.69,16.65"/><path class="cls-15" d="m802.32,486.59c-10.49-6.87-24.33-6.36-34.09.42,0,0-21.83,10.3-46.05,21.91-24.22,11.61-63.33,32.41-63.33,32.41-2.76,1.12-5.25,2.91-7.14,5.31-5.69,7.22-3.88,17.28,4.04,22.46,4.22,2.76,9.32,3.59,14.03,2.66,1.01-.2,2-.48,2.96-.84,15.37-4.36,86.62-24.75,119-37.58,6.67-1.33,12.85-4.83,17.14-10.28,9.24-11.72,6.3-28.06-6.56-36.48Z"/><path class="cls-29" d="m648.74,563.6s-6.93-13.11,6.8-21.79c13.73-8.68,113.26-56.75,113.26-56.75,0,0,26.47-14.65,43.42,10.24,4,6.54,9.72,26.93-14.72,37.27-23.37,9.88-125.43,39.56-125.43,39.56,0,0-15.94,4.58-23.33-8.53Z"/><path class="cls-20" d="m678.68,529.46s10.55,1.12,17.62,14.11c7.07,12.99,4,20.23,4,20.23,0,0,1.72,2.72,6.61,1.49,0,0,18.72,5.88,50.55-5.69,31.82-11.57,51.83-22.95,56.8-31.67,4.97-8.72,5.92-22.03-1.42-33.87-7.34-11.84-23.1-18.7-45.38-13.28-22.28,5.42-36.67,11.11-57.76,17.94-21.1,6.83-28.35,20.78-27.73,25.67,0,0-4.45.78-3.3,5.07Z"/><path class="cls-2" d="m752.01,484.9c-14.43,4.21-26.48,8.69-42.3,13.81-8.99,2.91-15.47,7.12-19.89,11.36"/><path class="cls-2" d="m685.1,525.46c6.51,2.72,21.01,11.55,21.79,36.36"/><path class="cls-7" d="m689.08,522.83s8.58-8.19,19.34-13.45c10.76-5.26,30.77-9.94,38.11-13.51,7.34-3.57,27.72-11.52,33.03-12.23"/><path class="cls-7" d="m704.21,533.65s12.66-1.59,30.11-12.74c33.15-21.19,47.89-26.17,54.13-28.16"/><path class="cls-7" d="m711.23,546.36s17.94,1.14,46.49-17.07c17.24-10.99,31.36-20.2,41.34-23.18"/><path class="cls-7" d="m711.23,558.74s22,3.13,41.65-4.41c19.66-7.54,31.58-16.02,42-19.74,10.42-3.73,16.3-10.41,17.96-16.1"/><path class="cls-15" d="m683.69,555.42c-.2-4.79-2.74-9.45-7.34-12.46-7.92-5.19-18.95-3.54-24.64,3.68-2.6,3.3-3.63,7.19-3.23,10.93,0,0,1.63,48.11,10.04,108.79-.1,2.42,1.09,4.83,3.41,6.35,3.67,2.41,8.79,1.64,11.43-1.71,1.11-1.41,1.6-3.05,1.53-4.66,0,0,5.71-31.19,8.21-47.31,2.5-16.12,2.64-56.68.6-63.62Z"/><path class="cls-29" d="m663.02,539.12s-14.17,2.36-16.03,15.06c-1.85,12.71,10.63,112.65,10.63,112.65,0,0,.83,7.97,8.22,7.97s9.57-5.22,10.19-9.01c.62-3.79,6.14-34.99,7.49-42.01,1.35-7.02,2.39-26.36,2.5-37.55.1-11.19-.31-26.36-2.18-34.33-1.87-7.97-8.53-14.41-20.81-12.79Z"/><path class="cls-5" d="m685.24,561.81c.51,3.16.43,6.32.43,6.32"/><path class="cls-15" d="m675.91,675.35c-1.03-3.09-1.01-6.25-1-6.76,0-.02,0-.05,0-.07,0-4.12-3.67-7.47-8.19-7.47-4.22,0-7.69,2.9-8.14,6.64,0,0-.22,7.14-12.35,24.72-8.61,12.48-10.29,18.88-9.16,21.06,1.13,2.17,19.86,1.78,23.37-4.17,3.51-5.95,8.26-11.85,13.16-19.18,4.9-7.33,3.44-11.39,2.31-14.77Z"/><path class="cls-29" d="m657.42,665.22s.49,6.76-1.97,10.5c-2.46,3.74-11.3,17.41-14.88,23.43-3.58,6.02-5.38,14.25-4.11,15.53,1.27,1.28,11.81,1.16,18.14-.81,6.33-1.97,8.22-7.21,9.98-9.77,1.77-2.56,10.45-14.46,11.44-17.12s2.09-5.93-.15-12.88c-.77-2.33.03-7.69.03-7.69,0,0,.9-8.69-8.62-8.98-10.69-.32-9.87,7.77-9.87,7.77Z"/><path class="cls-21" d="m634.22,717.95s.57,2.8,1.66,3.65,8.58,1.71,10.14,1.42c1.56-.28,16.07-8.53,18.72-11.24,2.65-2.7,8.46-15.24,13.2-27.46l-43.72,33.62Z"/><path class="cls-15" d="m656.47,673.58s-2.96,4.21-4.83,7.33c-1.87,3.13-11.28,15.99-14.88,24.42-1.08,2.37-2.43,8.91-2.54,12.61,0,1.52,8.84,3.03,10.82,2.84,1.98-.19,16.12-8.34,19.03-11.38,2.91-3.03,10.11-16.88,12.96-22.38,2.85-5.5-.33-12.04-1.38-14.04,0,0-2.63,9.77-6.59,13.18-1.14.85-.1-4.08-.62-6.07-.52-1.99-8.58-2.04-10.24-2.04-.62-.09-3.38,3.94-4.21,4.41-.83.47,2.49-8.9,2.49-8.9Z"/><path class="cls-11" d="m669.06,686.18s-.3,2.4-2.31,6.75"/><path class="cls-11" d="m653.98,682.48s-1.72,3.23-2.81,5.38"/><path class="cls-11" d="m636.78,711.33s-1.48,2.88.45,4.3c1.93,1.42,6.45,2.27,7.85,1.99,1.4-.28,14.98-7.82,17.32-9.67,2.34-1.85,4.45-5.97,5.5-7.54"/><path class="cls-15" d="m733.18,380.43c-5.43-3.88-12.58-4.4-18.43-1.89-.24.1-.48.21-.71.32-5.21,2.38-38.09,17.57-68.57,35.96-1.28.68-2.45,1.59-3.42,2.72-4.09,4.76-3.18,11.64,2.04,15.37,3.39,2.43,7.77,2.92,11.55,1.66,0,0,51.84-15.87,72.93-26.42,2.98-1.34,5.56-2.72,7.62-5.12,6.02-6.99,4.67-17.11-3-22.6Z"/><path class="cls-17" d="m739.88,384.64s-7.61-13.73-25.84-7.6c-6.86,3.11-12.32,5.47-12.32,5.47,0,0-51.95,27.4-57.88,31.48-5.93,4.08-7.64,12.1-3.04,18.19,4.6,6.09,10.65,4.19,16.07,3.06,5.42-1.13,62.66-20.27,74.04-26.61,11.37-6.34,13.21-15.65,8.98-23.98Z"/><path class="cls-17" d="m708.75,421.61c-1.77-3.96-7.14-11.37-11.51-19.78-3.81-7.35-6.01-15.2-7.54-18.09-.43-.81-.85-1.77.03-2.18,6.93-3.16,16.38-2.39,16.38-2.39,0,0,5.38,26.18,8.19,39.88l-3.96,3.54c-.53.48-1.3-.36-1.59-.98Z"/><path class="cls-18" d="m697.64,398.32c-3.75-7.8-5.42-14.84-5.97-17.52-.66.22-1.31.48-1.93.76-.89.4-1.23,1.4-.8,2.21,1.53,2.9,3.64,10.71,7.45,18.07,4.36,8.41,10.47,16.48,12.25,20.44.28.63,1.17.8,1.7.32-1.44-4.83-7.92-14.32-12.7-24.28Z"/><path class="cls-15" d="m663.2,422.78s-.83-14.39-4.6-32.86c-2.91-14.26-4.22-33.73-4.23-33.83-.08-.87-.38-1.73-.91-2.51-1.81-2.66-5.64-3.47-8.56-1.82-2.3,1.3-2.63,3.54-2.79,6.05,0,0-1.57,13.17-2.95,27.51-1.55,16.16.08,38.65.08,38.65.03,1.92.61,3.86,1.81,5.61,3.5,5.13,10.9,6.71,16.53,3.52,3.99-2.26,6.02-6.31,5.62-10.3Z"/><path class="cls-17" d="m640.09,368.4c2.21.15,10.13.65,15.46-.41.33-.07.8-.3.85.01.53,3.66,3.5,23.78,4.99,31.07,1.64,8.04,9.28,35.56-8.58,36.98-17.86,1.42-17.32-16.64-17-21.9.29-4.91,3.24-40.84,3.63-45.63.02-.29.34-.15.66-.12Z"/><path class="cls-18" d="m656.6,369.36c-.08-.57-.15-1.03-.2-1.36-.05-.31-.37-.51-.7-.44-5.34,1.06-13.43.62-15.65.48-.32-.02-.6.2-.62.49-.03.33-.07.8-.11,1.39,2.6.33,10.86,1.16,17.28-.55Z"/><path class="cls-7" d="m662.36,403.53s1.95,8.72,1.98,13.27"/><path class="cls-15" d="m633.68,338.33s1.17,6.52,2.83,9.67c1.66,3.16,4.28,11.03,4.55,16.17.15,2.85,3.87,3.26,7.51,3.26,2.93,0,5.86.47,6.42-3.91.22-3.18.64-9.49.98-13.71s-2.36-14.75-3.27-18.09c-.91-3.34-2.53-11.3-3.15-14-.62-2.7-1.41-5.06-2.76-5.21-1.34-.16-2.17,1.4-1.59,5.99.59,4.59,1.27,11.55.83,12.07-.44.52-11.97,6.28-12.36,7.77Z"/><path class="cls-26" d="m637.56,346.12c3.52.61,7.47,3.67,6.96,7.06-1.29-3.35-3.41-5.84-6.96-7.06Z"/><path class="cls-15" d="m646.04,330.56s-1.51-1.41-3.47-.9c-1.97.51-2.39,1.41-2.39,1.41,0,0-3.18-.51-4.11,2.04,0,0-2.57,1.11-3.01,3.41-.44,2.3-.07,8.92,1.24,10.53,1.31,1.61,2.72-1.13,2.87-2.3,0,0,.91,1.31,2.35.93,1.44-.39,1.8-5.11,1.8-5.11,0,0,.01,2.41,1.51,2.29,1.5-.12,2.72-2.49,2.93-4.95.21-2.45.27-7.35.27-7.35Z"/><path class="cls-10" d="m636.06,347.05s1.07-1.07,1.11-2.3c0,0,.82,1.25,2.07.98,1.25-.27,2.04-2.9,2.09-5.17,0,0,.12,2.49,1.51,2.29,1.39-.2,2.77-2.83,2.9-4.66.13-1.83.28-6.44.28-6.44"/><path class="cls-14" d="m640.18,331.07c.35,2.8,1.02,6.71,1.15,9.49-1.19-3-1.78-6.33-1.15-9.49Z"/><path class="cls-14" d="m636.07,333.12c.52,3.87.9,7.73,1.1,11.63-1.23-3.75-1.61-7.75-1.1-11.63Z"/><path class="cls-23" d="m617.78,355.43l54.81-39.83.73.57-46.59,34.27s1.24-.07,2.4,1.28c0,0-2.12-.59-8.43,2.97-.66.37-1.56.23-2.91.73Z"/><path class="cls-27" d="m672.59,315.61s9.39-7.94,19.68,0c0,0-3.44-1.3-6.75-.95,0,0,2.77.14,3.48,2.63,0,0-4.76-1.28-7.8-.57,0,0,2.34.78,2.96,3.84,0,0-1.87-1.71-3.43-1.85,0,0,1.4,2.06.7,4.98,0,0-2.57-2.84-5.23-2.84,0,0,2.26,2.13,2.57,5.69,0,0-2.94-3.13-6.19-2.92,0,0,2.6,1.28,3.22,2.92,0,0-2.26-1.35-4.45-1.21,0,0,3.2,1.58,4.06,5.24,0,0-2.89-3.17-6.63-3.17,0,0,2.42.78,3.2,2.63,0,0-2.81-1.64-5.93-1.64,0,0,5.46,2.13,4.91,7.82,0,0-.86-5.19-4.52-6.12-3.67-.92-11.65,1.48-13.79.78l19.92-15.26Z"/><path class="cls-15" d="m650.6,357.67s-3.83-4.67-4.05-9.1c-.22-4.43,2.9-7.3,2.5-8.04-.4-.74-6.41-1-7.72-3.77-.4-.74-.04-2.1,5.51-1.17,5.55.93,9.03,1.83,9.7,3.02.67,1.19.29,12.34-.91,17.72-1.2,5.38-4.12,2.57-5.02,1.35Z"/><path class="cls-10" d="m646.55,348.57c-.22-4.43,2.9-7.3,2.5-8.04-.4-.74-6.41-1-7.72-3.77-.4-.74-.04-2.1,5.51-1.17,3.11.52,5.56,1.03,7.24,1.59"/><path class="cls-15" d="m769.46,366.66l-5.43-25c-.02-.19-.04-.38-.06-.58-.9-6.71-7.59-11.48-14.95-10.66-6.92.77-11.96,6.22-11.78,12.45,0,0,0,.03,0,.03,0,.19.02.38.03.58l1.51,26.82c0,.15.01.3.03.44.02.26.05.51.08.77,1.04,7.76,8.79,13.29,17.31,12.34,8.52-.95,14.57-8.02,13.53-15.78-.06-.48-.16-.95-.27-1.42Z"/><path class="cls-15" d="m738.67,368.16c-8.66,1.72-26.51,7.07-32.45,14.43-.92,9.11,14.74,65.35,16.5,68.73.69,1.33,79.48,1.32,80.22-8.41,1.93-25.47,8.01-66.58,1.17-71.67-6.84-5.09-36.84-8.18-36.84-8.18l-28.6,5.11Z"/><path class="cls-17" d="m706.75,378.76c4.92-3.18,13.48-7.67,25.92-10.62,0,0-.22-2.84.71-3.41.94-.57,4.1-.28,5.09,0,.99.28,3.33,3.94,3.33,3.94,0,0,2.32-5.59,4.94-5.62,2.62-.03,15.96-2.15,20.72-6.35,2.39-1.36,4.29,3.62,4.29,3.62,0,0,23.24,6.17,29.64,8.35,6.4,2.18,8.11,11.28,7.96,19.53-.16,8.25-4.21,62.87-4.21,62.87,0,0,5.57,4.96,7.7,14.85,0,0-44.36,13.02-70.88,13.59,0,0-1.32-9.8-7.37-13.08,0,0-6.83,3.69-7.77,10.95,0,0-9.36-5.69-9.83-19.63l3.28-4.19s-11.5-29.97-17.7-65.83c-.6-3.47,1.03-6.94,4.18-8.97Z"/><path class="cls-12" d="m744.62,370.56s2.73-4.98,3.28-5.33c.55-.36,13.49-.64,20.75-5.69"/><path class="cls-12" d="m739.94,370.56s-1.33-3.64-2.18-4.02c-.86-.38-3.51,0-3.51,0"/><path class="cls-12" d="m705.36,397.98s14.1,4.11,29.24,11.55c4.4,2.16,33.13-19.49,59.64-17.64"/><path class="cls-7" d="m705.36,382.92s-2.48,8.47.08,19.4c2.55,10.94,4.52,18.52,4.52,18.52"/><path class="cls-8" d="m717.89,408.62c1.51,16.29,5.28,32.4,11.2,47.83"/><path class="cls-8" d="m734.7,413.98c2.56,13.91,5.12,27.82,7.68,41.72"/><path class="cls-8" d="m755.15,409.96c3.92,15.51,6.35,31.33,7.27,47.22"/><path class="cls-8" d="m772.53,406.34c2.58,14.91,3.48,30.07,2.71,45.15"/><path class="cls-8" d="m713.11,415.52c24.57,2,49.63-1.26,72.6-9.44"/><path class="cls-8" d="m715.73,426.38c25.04,3.94,51.03,2.82,75.55-3.23"/><path class="cls-8" d="m720.68,440.61c26.45,2.89,53.02-2.79,78.93-8.44"/><path class="cls-8" d="m723.98,448.98c20.6,3.28,42.08,1.92,61.99-3.92"/><path class="cls-8" d="m795.63,377s3.28,20.21,4.37,43.06c1.09,22.85-.4,33.56-.4,33.56"/><path class="cls-18" d="m812.18,463.34c-27.74,10.61-69.02,14.43-69.02,14.43-1.25-10.43-8.46-12.32-8.46-12.32-5.95,2.13-8.77,9.34-8.77,9.34-6.69-6.46-7.81-15.45-8-18.23l-.92,1.18c-.7,14.82,9.96,20.42,9.96,20.42.94-7.25,7.63-11.73,7.63-11.73,6.05,3.28,7.03,14.34,7.03,14.34,31.51.38,71.4-14.86,71.4-14.86-.19-.9-.61-1.75-.85-2.57Z"/><path class="cls-12" d="m720.28,453.56s3.77,4.4,14.42,12.36c0,0,40.5.08,70.45-14.85"/><path class="cls-1" d="m726.64,357.61s-2.28,0-4.04.42l.88,2.14s-2.34-.38-3.48,0l.63,1.25s-2.91-.65-3.85.42c0,0,1.98,1.26,2.39,2.21h-3.12l1.23,1.8s-2.59.11-3.21.67c0,0,1.46,1.13,1.98,1.61,0,0-2.9,1.61-2.96,2.42l2.91.43s-1.1.28-2.14,1.9l3.42.3s-1.39,1.49-1.58,2.58l2.63-.42s-.64,2.28-1.05,3.32l3.13-.66s-.21,1.61.42,3.32c0,0,1.99-.38,3.13-1.14,0,0,.2,1.33,1.03,2.56,0,0,3.26-.47,3.76-1.14,0,0,.27,1.71,1.27,3.22,0,0,1.86-.95,2.63-1.99,0,0,.3,2.37,1.57,3.41,0,0,3.35-1.25,3.67-2.28,0,0,.83,1.34,2.03,2.28,0,0,1.2-.85,1.51-1.9,0,0,.73,1.42,2.08,1.9,0,0,2.09-1.46,2.18-3.03,0,0,1.46,1.52,2.71,2.09,0,0,.45-.64.95-2.07,0,0,1.33.74,3.1.74,0,0,1.35-1.22,1.04-2.65,0,0,1.87,1.04,3.12,1.23,0,0,.44-1.14.37-2.09,0,0,3.1.93,5.42.38,0,0,.39-1.23,0-2.37,0,0,2.28.5,4.12.06,0,0,.68-.64-.35-1.54,0,0,2.3.15,4.17-.51,0,0,1.06-1.25,0-2.09,0,0,2.6.47,4.16.09,0,0,.21-.76,0-1.52,0,0,2.5.19,3.85-.28v-2.13s2.7.81,3.95,0c0,0-.21-1.21-1.04-2.1,0,0,1.98.06,3.12-.98,0,0-.52-1.54-1.56-2.43,0,0,1.49.41,2.88-.95,0,0-.59-1.08-1.73-1.74,0,0,.73-.66,1.14-2.28,0,0-1.87-.95-3.12-.95,0,0,.52-1.17-.21-2.67l-2.39.69s.1-.96-.62-2.48c0,0-2.23.57-3.41.57,0,0,.18-1.71-.86-2.56,0,0-.84,1.23-1.98,1.42,0,0-.93-2-2.18-2.37,0,0-.82,1.24-1.4,1.81l-2.77-1.81,1.28,4.96s1.4-.73,2.38.53c.98,1.26,1.91,3.09,1.91,3.09l-1.91.43s-.64,1.33-.89,1.9l-1.93-.19-.31,1.52-2.68-.35-.66,2.05-2.81-.63s-.72,1.96-1.34,2.52c-.62.57-3.16-.57-4.08-.47s-.94,1.04-1.61,1.89c-.66.86-3.37-.53-3.37-.53,0,0-.62,1.86-1.35,2.1-.73.24-2.08-.9-2.08-.9,0,0-.01,1.8-1.05,2.18-1.03.38-3.12-1.28-3.12-1.28,0,0-.61,2.42-1.13,2.42s-2.65-2.67-2.65-2.67c0,0-.55-.37-1.55-.27-1,.09-.15-1.58-.15-1.58,0,0-1.94.63-2.85.2s-1.57-.52-1.57-.52c0,0,.06-3.19.71-3.41.66-.22,3.9-1.01,5.09,0l-.19-3.3s-.9-2.35-1.84-1.89h-2.21l.73-1.16-3.31.66v-1.88l-2.45,1.22-2.57-.76Z"/><path class="cls-3" d="m722.84,372.72c-.32.56-.65,1.12-.97,1.69.56-.05,1.12-.1,1.69-.15"/><path class="cls-3" d="m726.02,375.66l-.36,2.12c.44-.3.89-.59,1.33-.89"/><path class="cls-3" d="m731.4,378.09c-.13.78.15,1.6.73,2.18.57-.27.97-.81,1.04-1.39"/><path class="cls-3" d="m739.89,379.54c-.02.39-.04.8.13,1.16.17.36.58.66,1,.59.56-.09.79-.7.91-1.2"/><path class="cls-3" d="m748.57,378.33c.4.44.79.88,1.19,1.33.3-.49.59-.99.89-1.48"/><path class="cls-3" d="m751.18,371.93c.53.31,1.07.61,1.6.92l.24-1.15"/><path class="cls-3" d="m761.21,371.34c.59.37,1.17.75,1.76,1.12-.81.09-1.63.18-2.44.27"/><path class="cls-3" d="m772.37,367.39c.78.11,1.56.22,2.34.34.13-.62-.27-1.29-.9-1.53"/><path class="cls-3" d="m774.88,359.68c.52-.36,1.23-.5,1.87-.36-.06.69-.6,1.34-1.33,1.56"/><path class="cls-3" d="m721.78,367.69c-.44-.23-.88-.46-1.32-.69.59-.4,1.42-.49,2.09-.22"/><path class="cls-3" d="m725.66,363.72c-.4-.26-.69-.67-.79-1.11.8-.15,1.66,0,2.35.39"/><path class="cls-3" d="m730.49,368.88c-.62.09-1.2.37-1.62.79.79.35,1.7.48,2.57.37"/><path class="cls-3" d="m732.75,362.69c-.18,0-.32-.18-.29-.34.03-.16.19-.28.36-.34.56-.17,1.1.28,1.49.69"/><path class="cls-3" d="m735.3,374.46c-.07.63.05,1.28.34,1.86.44-.35.89-.71,1.33-1.06"/><path class="cls-3" d="m743.25,376.02c.14.26.28.53.51.74.23.2.56.34.87.26.28-.07.49-.3.57-.55.08-.25.03-.53-.08-.77"/><path class="cls-3" d="m755.02,375.8l1.5,1.17c.11-.41.23-.81.34-1.22"/><path class="cls-3" d="m764.86,367.94c.71.26,1.41.51,2.12.77,0-.52.02-1.04.03-1.57"/><path class="cls-3" d="m770.52,371.83c.26.27.62.51,1.01.49.36-.03.69-.31.73-.64.04-.33-.2-.67-.54-.78"/><path class="cls-3" d="m778.97,361.65c.8-.3,1.78-.2,2.48.28-.57.56-1.14,1.12-1.71,1.68"/><path class="cls-3" d="m772.21,357c-.12-.29.05-.65.35-.79.31-.13.72-.02.89.24.27.4-.01.91-.28,1.3"/><path class="cls-3" d="m777.19,367.64c.63.25,1.26.49,1.89.74.19-.69-.03-1.47-.57-1.99"/><path class="cls-19" d="m716.09,308s-2.19,8.92.55,19.45l6.65-19.72-7.19.27Z"/><path class="cls-15" d="m749.87,289.53s-24.19-2.98-30.56,16.36c-6.38,19.34-3.74,51.73,10.42,55.01,14.16,3.28,35.31-9.04,43.03-28.99,7.72-19.95-2.13-40.86-22.89-42.39Z"/><path class="cls-26" d="m740.49,360.88c7.35-2.95,14.4-6.5,20.45-11.37-4.53,5.71-12.92,10.01-20.45,11.37h0Z"/><path class="cls-19" d="m762.53,327.26s-3.75,1.22-5.24,8.69c-1.49,7.47,1.25,12.47-.46,16.94-.99,2.59-14.53,11.03-29.7,8.49-5.86-1.01-9.48-13.38-9.83-19.59,0,0,2.31-.6,4.63-1.16,3.12-.75,5.72-1.35,14.32,1.27,4.56,1.39,13.5,1.59,15.78-.74,2.28-2.33,4.01-22.09,5.61-26.6,1.6-4.51,5.34,10.43,4.88,12.7Z"/><path class="cls-15" d="m727.03,342.44s3.42.04,6.3.95c1.65.52,5.02,1.58,5.55,2.46.53.88-1.32,4.12-4.04,5.4-2.72,1.28-5.4-.28-5.37-2.46l-1.26-.23s-.57,2.39-1.66,2.38c-1.08-.01-4.82-3.11-4.78-5.94.04-2.83,5.26-2.55,5.26-2.55Z"/><path class="cls-19" d="m733.45,288.54c10.03-3.66,21-.22,21-.22,15.58,1.48,22.16,15.24,22.89,23.97.73,8.73-4.35,21.94-6.73,28.25-2.38,6.32-4.18,10.6-4.7,9.82-1.25-1.92-6.75-13.18-7.65-17.85-.91-4.66,2.68-3.51-.57-7.77-3.25-4.26-2.82-8.45-2.77-11.37.02-1.45.43-3.3.83-4.81-.02.01-.03.03-.05.04.14-.46.25-.82.33-1.05.02-.08.05-.18.07-.26,0,0,.01-.01.02-.02,0,0,0-.03,0-.03-5.35,3.31-10.92,2.64-15.8,1.65-4.88-.99-13.27-4.25-13.27-4.25-2.17-1.33-4.97-1.09-7.4.21l-1.09,3.38-2.52-.14c.91-9.51,7.35-15.89,17.38-19.55Z"/><path class="cls-24" d="m716.86,308.13s-4.26,2.62-4.41,1.17c-.15-1.45,2.2-3.14,2.2-3.14,0,0-3.12-1.03-2.83-3.43.29-2.4,4.1-2.35,4.1-2.35,0,0-1.61-4.31,2.81-5.17,0,0-.57-5.1,2.51-6.23,3.08-1.14,6.12.19,6.12.19,0,0,.56-2.98,2.24-3.52,1.69-.54,4.76.87,4.76.87,0,0,1.33-2.8,5.25-3.25,3.92-.45,6.67,1.99,6.67,1.99,0,0,1.63-.45,3.07-.59,1.45-.14,2.77,1.65,2.77,1.65,0,0,4.13-.9,7.38.13,3.25,1.03,3.04,2.62,3.04,2.62,0,0,3.53,1.01,4.69,1.38,1.16.37.9,2.21.9,2.21,0,0,5.48.79,6.11,1.81.63,1.02.33,4.21.33,4.21,0,0,2.39,1.45,2.83,2.69s-.13,3.33-.13,3.33c0,0,1.4,2.96,1.68,5.98.28,3.02-1.73,3.04-1.73,3.04l-5.21-1.98s1.11,1.38-.54,2.49-8.76-3.15-8.76-3.15c0,0,.21,2.1-1.99,2.48-2.2.37-5.99-2.85-5.99-2.85,0,0-2.2.84-3.7.57-1.5-.27-2.78-1.62-2.78-1.62,0,0-2.56,2.21-4.12,1.86-1.56-.35-3.05-2.49-3.05-2.49,0,0-4.1,1.26-5.66.91-1.56-.35-1.38-2.51-1.38-2.51,0,0-7.02.65-7.56-.87-.55-1.52-.4-2.41-.4-2.41,0,0-4.17,5.77-6.13,2.55l-3.09,1.42Z"/><path class="cls-19" d="m734.98,319.6s-.9,1.34.68,2.15c1.58.81,9.43.61,13.08.8,3.66.19,3.29-1.74-.99-2.45-3.72-.62-12.26-1.72-12.78-.51Z"/><path class="cls-19" d="m727.31,319.12s.79,1.24-.89,1.89c-1.67.64-5.22-.25-8.88-.44-1.91-.1-2.09-.72-1.81-1.3.25-.52.77-.99,2.84-1.12,3.77-.23,8.19-.32,8.74.96Z"/><path class="cls-22" d="m741.99,327.1c-.04,1.48-1.14,2.66-2.46,2.64-1.32-.03-2.37-1.25-2.33-2.73.04-1.48,1.14-2.66,2.46-2.64,1.32.03,2.37,1.25,2.33,2.73Z"/><path class="cls-22" d="m724.62,326.02c-.04,1.48-1.14,2.66-2.46,2.64-1.32-.03-2.37-1.25-2.33-2.73.04-1.48,1.14-2.66,2.46-2.64,1.32.03,2.37,1.25,2.33,2.73Z"/><path class="cls-14" d="m730.55,339.83c-1.53.02-3.67-.16-4.47-1.24-.3-.41-.54-1.1.02-2.08,2.23-3.86,3.32-9.99,3.33-10.05.07-.42.51-.71.98-.64.46.07.78.47.71.89-.05.26-1.15,6.44-3.51,10.53-.05.09-.2.37-.12.49.36.49,2.52.65,4.24.49.47-.04.89.27.93.69.05.43-.29.81-.76.85-.3.03-.78.06-1.36.07Z"/><path class="cls-1" d="m723.32,343.76c2.23.26,8.14.84,13.21,1.21.56.04.76.69.3.99-2.54,1.67-9.1,4.52-13.78-1.75-.15-.21,0-.48.27-.45Z"/><path class="cls-26" d="m735.46,333.47s1.55-2.27,7.97-1.35c5.22.74,7.17,1.65,6.68,4.62-.22,3.9-18.29,2.35-14.65-3.26Z"/><path class="cls-26" d="m717.3,329.94c3.62.41,6.95,1.42,6.66,4.06-.26,1.49-3.39,2.38-5.95,2.42-.72,0-1.13.04-1.58-.07-.22-2.14-.35-4.33-.39-6.55.46.04.9.09,1.26.14Z"/><path class="cls-26" d="m728.2,349.42c1.08.14,2.15.07,2.21.07.29-.02.51-.26.49-.52-.02-.27-.28-.47-.57-.45-.02,0-1.88.13-2.94-.28-.27-.11-.59,0-.7.26-.12.25.01.53.28.64.37.14.8.24,1.23.29Z"/><path class="cls-15" d="m758.05,333.12s3.31-6.77,8.91-4.95c5.61,1.82-1.8,16.95-7.02,15.19-5.22-1.76-1.89-10.24-1.89-10.24Z"/><path class="cls-14" d="m765.85,331.61c.23-.05.38-.25.33-.47-.05-.21-.28-.35-.51-.3-.19.04-4.75.97-5.1,8.61,0,.19.13.35.33.4.03,0,.06.01.09.01.24,0,.44-.16.45-.38.04-.86.13-1.62.27-2.31,1.07-2.3,3.14-2.3,3.16-2.3.24,0,.43-.17.44-.39,0-.22-.19-.4-.43-.4-.08,0-1.32,0-2.51.91,1.27-2.91,3.36-3.37,3.48-3.39Z"/><path class="cls-20" d="m713.57,300.8s-1.69-.27-1.78-2.54c0,0-6.54-.19-6.23-6.35.61-3.03,2.7-3.41,2.7-3.41,0,0,2.91-7.49,18.41-8.82,15.5-1.33,42.64,1.33,53.77,11.66,11.13,10.34,9.15,15.36,9.15,15.36,0,0,3.15,9.86-8.15,11.33-11.3,1.47-25.7-6.97-30.2-11.33-4.5-4.36-29.98-7.24-37.68-5.9Z"/><path class="cls-25" d="m737.09,298.83c-12.88-3.22-25.3-.58-25.3-.58.09,2.28,1.78,2.54,1.78,2.54,7.22-1.26,30.09,1.19,36.61,5.1,0,0-.21-3.85-13.09-7.07Z"/><path class="cls-7" d="m708.32,289.36s-.46,4.15,5.88,3.77c6.34-.38,22.34-3.47,31.5.02"/><path class="cls-7" d="m788.78,307.55s-2.04,2.92-8.57,3.88c-6.53.96-13.49-2.84-18.17-8.25-4.68-5.41-10.89-8.06-12.62-8.53"/><path class="cls-20" d="m751.25,286.85s1.74-8.7,5.17-9.74c1.98-.47,2.5.76,3.54,1.23,1.04.47,3.8.66,4.08,1.8.29,1.14-1.4,2.84-3.47,3.89-2.07,1.04-6.15,3.42-7.02,4.03-.87.61-2.81.87-2.3-1.21Z"/><path class="cls-2" d="m753.55,286.11s4.95-5.3,8.18-5.59"/><path class="cls-4" d="m751.52,285.7c.3-1.2.87-3.16,1.69-4.91"/><path class="cls-4" d="m762.58,282.7c-.57.49-1.27.95-2.01,1.33-2.07,1.04-6.15,3.42-7.02,4.03"/><path class="cls-15" d="m812.21,385.47c-.16-3.03-.54-5.74-2.13-8.41-4.66-7.81-15.38-10.69-23.94-6.44-6.06,3.01-9.42,8.79-9.21,14.68,0,.24.02.48.04.73.33,5.3,2.61,38.85,9.05,71.65.18,1.34.63,2.68,1.38,3.94,3.17,5.31,10.46,7.27,16.28,4.38,3.79-1.88,6.02-5.35,6.25-9.01,0,0,4.55-49.69,2.28-71.52Z"/><path class="cls-17" d="m795.23,367.72s16.88-.08,19.2,17.51c1.25,18.32-1.8,67.14-3.08,73.81-1.28,6.67-8.34,11.71-16.37,10.75-8.04-.96-8.94-6.74-10.3-11.65-1.37-4.91-9.77-60.1-8.76-72.21,1.01-12.12,7.82-18.01,19.32-18.21Z"/><path class="cls-7" d="m776.92,405.16s2.67,21.99,4.41,33.2"/><path class="cls-17" d="m775.83,405.22s-10.57-28.85,11.48-37.29c14.25-4.2,24.96,4.53,29.02,8.44,0,0,.21,2.09-8.32,7.6-8.53,5.51-17.37,12-21.01,15.11s-6.34,6.14-11.17,6.14Z"/><path class="cls-18" d="m816.75,376.58c-.29-.28-1.03-.8-1.38-1.12-2.3,2.3-5.75,4.21-10.81,7.59-5.82,3.89-15.91,11.47-20.38,15.84-3.01,2.94-6.78,4.07-8.92,4.49.34,1.16.58,1.83.58,1.83,4.82,0,7.53-3.03,11.17-6.14,3.64-3.11,12.48-9.6,21.01-15.11,8.53-5.51,8.74-7.38,8.74-7.38Z"/><path class="cls-7" d="m773.35,388.25s-1.08,8.99,2.48,16.97c0,0,3.02.34,5.76-1.73,2.74-2.08,8.35-6.88,11.79-9.38,3.44-2.51,10.12-7.18,11.99-8.41"/><path class="cls-15" d="m809.22,454.77c-.7-4.24-3.97-7.54-8.15-8.79,0,0-14.82-5.01-34.92-9.17-15.52-3.21-35.64-9.83-35.75-9.86-.9-.28-1.89-.37-2.89-.23-3.39.46-5.73,3.35-5.23,6.44.4,2.45,2.52,3.6,4.99,4.73,0,0,12.64,6.53,26.54,13.37,15.66,7.7,38.95,15.24,38.95,15.24,1.95.73,4.13,1.01,6.36.71,6.56-.89,11.08-6.47,10.1-12.44Z"/><path class="cls-17" d="m736.64,443.39c1.11-2.06,4.19-7.91,5.17-12.59.1-.46.27-1.12.77-1,4.66,1.11,25.34,6.02,33.1,7.49,8.78,1.66,39.61,6.52,34.28,22.13-5.33,15.61-23.45,8.3-28.68,6.04-4.79-2.07-39.06-18.42-44.68-21.1-.43-.21-.19-.58.03-.98Z"/><path class="cls-18" d="m743.87,430.1c-.51-.12-.95-.23-1.29-.31-.5-.12-1,.17-1.1.63-.98,4.68-4.15,10.81-5.26,12.87-.21.4-.04.87.39,1.08.4.19.96.46,1.64.78,1.49-2.68,4.98-9.44,5.62-15.05Z"/><path class="cls-7" d="m741.48,430.42s.65-.73,1.71-.48c1.06.25,34.28,7.58,38.39,8.47"/><path class="cls-7" d="m781.33,438.36s12.4,2.79,18.28,5.42"/><path class="cls-7" d="m736.57,442.64s-.89,1.28.04,1.73c.94.45,28.8,13.72,34.85,16.55,4.66,2.18,13.22,6.66,20.63,8.21,2.2.46,4.31.66,6.17.46,8.13-.86,11.58-6.7,12.69-9.04"/><path class="cls-15" d="m732.8,428.24s-5.48-5.06-8.66-7.22c-3.18-2.16-8.55-.67-13.81-3.01-1.42,1.03-.11,1.96,1.42,3.1,1.53,1.14,4.82.7,5.7,1.07.88.37,2.57,1.23,3.8,3.5,1.24,2.27,9.02,7.76,11.54,2.56Z"/><path class="cls-13" d="m720.85,423.56s-37.38-9.47-58.76-7.3c0,0,13.56,20.22,10.44,48.47-3.12,28.24-45.66,32.87-65.21,61.38-13.96,20.35-29.69,46.84-21.24,102.11,0,0,6.52,43.59,2.36,61.17-5.57,23.55-34.98,19.99-49.12,25.48,0,0,10.88,2.82,31.24,7.01,30.16,6.2,56.32,3.54,56.32,3.54,0,0,18.36-11.94,12.77-89.9,0,0-5.6-65.25,10.63-90.34,9.33-16.81,32.27-24.22,48.56-33.18,17.31-9.53,49.76-40.1,22.02-88.44Z"/><path class="cls-15" d="m732.8,428.24s-7.56-3.1-11.5-4.4c-3.94-1.3-17.97,2.3-19.83,2.8-1.86.5-10.63-.4-14.9-.2-3.39.16-5.37.89-5.48,1.79-.11.9.77,1.26.77,1.26,0,0-1.86,1.74-1.97,2.44-.11.7,4.16,1.51,4.16,1.51,0,0,.66,1.26,1.64,2.17.99.91,3.4,1.11,3.4,1.11,0,0,.99,1,2.63,1.7s8.66,2.3,10.85,2.8c2.19.5,7.67-.5,11.07-1,3.4-.5,10.52-1,10.52-1,14.24-1.4,13.52.91,13.12-4.01-.43-5.32-3.7-6.68-4.46-6.99Z"/><path class="cls-14" d="m707.13,430.37c-2.75.5-5.49,1.21-8.31,1.27-5.68-.5-11.44-1.05-16.96-2.14,6.35-1.04,12.61,1.58,18.94,1.46,2.01-.04,4.63-.7,6.33-.59h0Z"/><path class="cls-14" d="m705.52,435.21c-3.6.61-7.25,1-10.86.17-3.47-.53-7.56-.88-10.63-1.93,5.5-.66,10.67,1.59,16.06,1.89,1.69.1,4.04-.37,5.42-.13h0Z"/><path class="cls-14" d="m705.39,437.95c-5.3,1.61-11.16.38-16.31-1.21,3.09-.09,6.96.47,10.24,1.05,1.9.5,4.42.05,6.07.17h0Z"/><path class="cls-14" d="m721.31,423.8c.9.07,1.81.31,2.7.44,1.17.33,2.07,1.48.06,1.17-.66-.19-1.26-.67-1.88-.96-.15-.14-1.1-.5-.88-.64Z"/><path class="cls-14" d="m729.06,438.86c-.37-.95-.33-2.16.18-3.05.9-.88,1.42-.8,1.04.49-.46.81-1.03,1.59-1.11,2.54,0,.06-.09.07-.11.02h0Z"/><path class="cls-16" d="m639.65,450.3s35.61.38,55.46,10.06c0,0-.4-35.27,25.74-36.79,0,0-5.14-6.67-15.08-6.75-9.94-.08-18.81-1.7-28.73-2.69-9.92-.99-21.3,3.46-25.72,9.63-4.43,6.17-7.94,14.4-11.67,26.55Z"/></svg>