<?xml version="1.0" encoding="UTF-8"?><svg id="uuid-6ef74bd7-5d1f-4399-9a39-2a242849aa7f" xmlns="http://www.w3.org/2000/svg" viewBox="0 0 1366 768"><defs><style>.uuid-0ae7d8d9-e357-44fd-a16f-21b741e7b825{fill:#fff;}</style></defs><path class="uuid-0ae7d8d9-e357-44fd-a16f-21b741e7b825" d="m1019.84,219.64c-5.5,9.47-15.11,13.67-24.44,11.77-4.44,9.63-17.05,16.58-31.91,16.58s-27.05-6.72-31.68-16.1c-4.67,6.35-14.36,10.71-25.56,10.71-15.76,0-28.53-8.64-28.53-19.29,0-.49.03-.98.08-1.47-3.16-1.02-5.95-3.01-8.07-5.96-6.92-9.69-3.96-26.17,6.62-36.82,9.89-9.96,22.93-11.29,30.24-3.49.24-.44.5-.87.76-1.3,8.46-13.62,24.52-16.61,35.86-6.68,1.79,1.57,3.36,3.36,4.69,5.33,8.67-7.26,20.28-7.74,28.9-.19,2.03,1.78,3.75,3.88,5.15,6.21,8.37-7.98,20.84-8.63,30.55-.67,11.74,9.62,15.02,28.14,7.33,41.37Z"/><path class="uuid-0ae7d8d9-e357-44fd-a16f-21b741e7b825" d="m1125.85,152.89c-4.85,7.38-13.35,10.66-21.58,9.18-3.92,7.51-15.06,12.93-28.18,12.93s-23.88-5.24-27.98-12.55c-4.12,4.95-12.68,8.35-22.57,8.35-13.91,0-25.19-6.73-25.19-15.04,0-.38.02-.77.07-1.14-2.79-.8-5.25-2.34-7.12-4.65-6.11-7.55-3.49-20.41,5.84-28.71,8.73-7.77,20.25-8.8,26.7-2.72.21-.34.44-.68.67-1.01,7.47-10.62,21.65-12.96,31.67-5.21,1.58,1.22,2.96,2.62,4.14,4.15,7.65-5.66,17.91-6.04,25.52-.15,1.79,1.39,3.31,3.02,4.55,4.84,7.39-6.22,18.4-6.73,26.98-.52,10.36,7.5,13.26,21.94,6.47,32.26Z"/><path class="uuid-0ae7d8d9-e357-44fd-a16f-21b741e7b825" d="m514.29,113.44c-8.87,12.54-24.39,18.1-39.45,15.59-7.16,12.76-27.52,21.97-51.51,21.97s-43.65-8.9-51.14-21.32c-7.53,8.41-23.17,14.19-41.25,14.19-25.43,0-46.04-11.44-46.04-25.56,0-.65.04-1.3.13-1.94-5.1-1.36-9.6-3.98-13.02-7.9-11.17-12.83-6.38-34.67,10.68-48.78,15.96-13.19,37.01-14.95,48.81-4.62.39-.58.8-1.15,1.23-1.72,13.66-18.04,39.57-22.01,57.88-8.84,2.89,2.07,5.41,4.45,7.56,7.05,13.99-9.62,32.73-10.26,46.64-.26,3.28,2.36,6.06,5.13,8.32,8.22,13.5-10.57,33.63-11.43,49.31-.89,18.94,12.74,24.24,37.27,11.83,54.8Z"/></svg>